<svg xmlns="http://www.w3.org/2000/svg" xmlns:xlink="http://www.w3.org/1999/xlink" width="27" zoomAndPan="magnify" viewBox="0 0 20.25 15.75" height="21" preserveAspectRatio="xMidYMid meet" version="1.0"><defs><clipPath id="ebe92b1f03"><path d="M 0.804688 1.734375 L 18.886719 1.734375 L 18.886719 13.304688 L 0.804688 13.304688 Z M 0.804688 1.734375 " clip-rule="nonzero"/></clipPath></defs><g clip-path="url(#ebe92b1f03)"><path fill="#f9f8f9" d="M 17.679688 1.765625 L 1.816406 1.765625 C 1.679688 1.765625 1.550781 1.792969 1.425781 1.84375 C 1.300781 1.894531 1.191406 1.96875 1.097656 2.0625 C 1 2.160156 0.929688 2.269531 0.875 2.394531 C 0.824219 2.519531 0.796875 2.648438 0.796875 2.78125 L 0.796875 12.453125 C 0.796875 12.585938 0.824219 12.714844 0.875 12.839844 C 0.929688 12.964844 1 13.074219 1.097656 13.171875 C 1.191406 13.265625 1.300781 13.339844 1.425781 13.390625 C 1.550781 13.441406 1.679688 13.46875 1.816406 13.46875 L 17.679688 13.46875 C 17.8125 13.46875 17.945312 13.441406 18.066406 13.390625 C 18.191406 13.339844 18.300781 13.265625 18.398438 13.171875 C 18.492188 13.074219 18.566406 12.964844 18.617188 12.839844 C 18.667969 12.714844 18.695312 12.585938 18.695312 12.453125 L 18.695312 2.78125 C 18.695312 2.648438 18.667969 2.519531 18.617188 2.394531 C 18.566406 2.269531 18.492188 2.160156 18.398438 2.0625 C 18.300781 1.96875 18.191406 1.894531 18.066406 1.84375 C 17.945312 1.792969 17.8125 1.765625 17.679688 1.765625 Z M 12.558594 7.617188 L 18.144531 2.636719 C 18.160156 2.683594 18.167969 2.734375 18.167969 2.78125 L 18.167969 12.453125 C 18.167969 12.5 18.160156 12.546875 18.144531 12.59375 Z M 17.679688 2.292969 C 17.695312 2.292969 17.714844 2.296875 17.734375 2.296875 L 10.070312 9.128906 C 9.980469 9.210938 9.871094 9.253906 9.746094 9.253906 C 9.621094 9.253906 9.511719 9.210938 9.421875 9.128906 L 1.757812 2.296875 C 1.777344 2.296875 1.796875 2.292969 1.816406 2.292969 Z M 1.347656 12.59375 C 1.335938 12.546875 1.324219 12.5 1.324219 12.453125 L 1.324219 2.78125 C 1.324219 2.734375 1.335938 2.683594 1.347656 2.636719 L 6.933594 7.617188 Z M 1.816406 12.941406 C 1.796875 12.941406 1.777344 12.9375 1.757812 12.9375 L 7.328125 7.96875 L 9.070312 9.523438 C 9.265625 9.691406 9.488281 9.777344 9.746094 9.777344 C 10.003906 9.777344 10.230469 9.691406 10.421875 9.523438 L 12.164062 7.96875 L 17.734375 12.9375 C 17.714844 12.9375 17.695312 12.941406 17.679688 12.941406 Z M 1.816406 12.941406 " fill-opacity="1" fill-rule="nonzero"/></g></svg>