<svg xmlns="http://www.w3.org/2000/svg" xmlns:xlink="http://www.w3.org/1999/xlink" width="421" zoomAndPan="magnify" viewBox="0 0 315.75 184.499994" height="246" preserveAspectRatio="xMidYMid meet" version="1.0"><defs><g/><clipPath id="0d22dbe6de"><path d="M 86 28.875 L 147.871094 28.875 L 147.871094 146 L 86 146 Z M 86 28.875 " clip-rule="nonzero"/></clipPath></defs><g fill="#f9f8f9" fill-opacity="1"><g transform="translate(155.377774, 80.33258)"><g><path d="M 32.609375 0 L 29.6875 -7.953125 L 12.984375 -7.953125 L 10.109375 0 L 0.53125 0 L 16.9375 -41.890625 L 25.5 -41.890625 L 42.421875 0 Z M 21.296875 -30.8125 L 15.859375 -15.859375 L 26.8125 -15.859375 Z M 21.296875 -30.8125 "/></g></g></g><g fill="#f9f8f9" fill-opacity="1"><g transform="translate(194.931803, 80.33258)"><g><path d="M 4.78125 0 L 4.78125 -41.890625 L 13.890625 -41.890625 L 13.890625 0 Z M 4.78125 0 "/></g></g></g><g fill="#f9f8f9" fill-opacity="1"><g transform="translate(210.190711, 80.33258)"><g><path d="M 56.140625 0 L 46.921875 0 L 42.78125 -27.34375 L 30.28125 -0.0625 L 28.0625 -0.0625 L 15.5625 -27.34375 L 11.4375 0 L 2.15625 0 L 8.734375 -41.890625 L 17.828125 -41.890625 L 29.140625 -16.21875 L 40.515625 -41.890625 L 49.609375 -41.890625 Z M 56.140625 0 "/></g></g></g><path fill="#f9f8f9" d="M 25.035156 91.316406 C 26.0625 91.324219 27.285156 91.445312 28.738281 91.703125 C 34.558594 92.699219 40.761719 94.160156 43.507812 101.085938 C 44.980469 104.8125 43.910156 107.316406 39.679688 106.675781 C 35.269531 106.011719 27.011719 104.980469 23.082031 103.542969 C 18.296875 101.789062 19.300781 96.46875 20.179688 93.765625 C 20.667969 92.257812 21.964844 91.28125 25.035156 91.316406 Z M 75.4375 38.746094 C 64.882812 38.746094 54.101562 38.699219 43.78125 40.125 C 39.007812 40.789062 35.917969 43.605469 33.707031 46.863281 C 28.671875 54.277344 25.429688 62.089844 22.597656 70.007812 L 9.945312 70.007812 C 6.417969 70.007812 4.316406 72.75 5.234375 76.15625 C 6.238281 79.917969 7.386719 81.757812 12.902344 83.042969 L 15.011719 83.53125 C 13.363281 86.675781 12.160156 89.988281 12.160156 92.960938 L 12.160156 117.289062 C 12.160156 121.363281 14.984375 124.804688 18.261719 126.082031 L 18.261719 137.472656 C 18.261719 139.695312 20.050781 141.488281 22.277344 141.488281 L 33.652344 141.488281 C 35.871094 141.488281 37.667969 139.695312 37.667969 137.472656 L 37.667969 126.652344 L 94.269531 126.652344 L 94.269531 120.480469 C 94.269531 117.402344 96 114.308594 98.148438 112.101562 L 98.148438 110.890625 C 97.433594 110.261719 95.714844 107.917969 94.824219 105.367188 C 92.988281 106.265625 90.96875 106.78125 88.925781 106.78125 L 61.953125 106.78125 C 56.738281 106.78125 51.605469 103.511719 49.617188 98.644531 C 48.667969 96.347656 49.128906 93.964844 51.191406 93.964844 L 94.257812 93.964844 L 94.257812 86.695312 C 87.289062 85.058594 81.359375 80.351562 79.339844 73.753906 C 78.035156 73.773438 76.695312 73.808594 75.4375 73.808594 C 56.082031 73.808594 30.003906 71.210938 30.003906 71.210938 C 32.339844 64.148438 36.058594 57.796875 40.222656 51.046875 C 42.167969 47.90625 45.054688 46.207031 48.199219 45.988281 C 56.511719 45.417969 66.347656 45.097656 75.4375 45.082031 C 76.476562 45.089844 77.546875 45.109375 78.605469 45.117188 L 78.605469 40.304688 C 78.605469 39.78125 78.644531 39.265625 78.683594 38.75 C 77.605469 38.746094 76.515625 38.746094 75.4375 38.746094 Z M 75.4375 38.746094 " fill-opacity="1" fill-rule="evenodd"/><g clip-path="url(#0d22dbe6de)"><path fill="#f9f8f9" d="M 130.816406 42.582031 L 130.816406 45.585938 C 130.816406 47.144531 129.554688 48.398438 128 48.398438 L 106.738281 48.398438 C 105.179688 48.398438 103.921875 47.144531 103.921875 45.585938 L 103.921875 42.582031 C 103.921875 41.023438 105.179688 39.777344 106.738281 39.777344 L 128 39.777344 C 129.554688 39.777344 130.816406 41.023438 130.816406 42.582031 Z M 148.003906 40.304688 C 148.003906 33.996094 142.929688 28.914062 136.621094 28.914062 L 98.125 28.914062 C 91.820312 28.914062 86.742188 34 86.742188 40.304688 L 86.742188 68.78125 C 86.742188 75.085938 91.820312 80.160156 98.125 80.160156 L 102.402344 80.160156 L 102.402344 102.472656 C 102.402344 103.683594 102.898438 104.238281 103.546875 104.8125 L 107.386719 108.214844 C 109.148438 109.773438 109.066406 112.730469 107.453125 114.335938 L 103.585938 118.160156 C 102.808594 118.933594 102.402344 119.445312 102.402344 120.480469 L 102.402344 130.820312 C 102.300781 131.871094 102.601562 133.035156 103.292969 134.050781 C 119.265625 149.097656 117.304688 148.144531 130.890625 134.695312 C 131.929688 133.65625 132.257812 132.386719 132.335938 131.007812 L 132.335938 80.164062 L 136.621094 80.164062 C 142.929688 80.164062 148.003906 75.089844 148.003906 68.78125 Z M 148.003906 40.304688 " fill-opacity="1" fill-rule="nonzero"/></g><g fill="#f9f8f9" fill-opacity="1"><g transform="translate(153.195088, 134.451798)"><g><path d="M 18.1875 0.53125 C 15.113281 0.53125 12.421875 -0.015625 10.109375 -1.109375 C 7.796875 -2.203125 5.988281 -3.753906 4.6875 -5.765625 C 3.394531 -7.785156 2.75 -10.171875 2.75 -12.921875 L 8.078125 -12.921875 C 8.078125 -10.296875 9.035156 -8.253906 10.953125 -6.796875 C 12.867188 -5.335938 15.257812 -4.609375 18.125 -4.609375 C 19.882812 -4.609375 21.484375 -4.894531 22.921875 -5.46875 C 24.359375 -6.050781 25.492188 -6.890625 26.328125 -7.984375 C 27.171875 -9.085938 27.59375 -10.375 27.59375 -11.84375 C 27.59375 -13.476562 27.101562 -14.742188 26.125 -15.640625 C 25.144531 -16.546875 23.859375 -17.253906 22.265625 -17.765625 C 20.671875 -18.285156 18.972656 -18.75 17.171875 -19.15625 C 15.535156 -19.550781 13.921875 -19.988281 12.328125 -20.46875 C 10.734375 -20.945312 9.265625 -21.59375 7.921875 -22.40625 C 6.585938 -23.226562 5.519531 -24.304688 4.71875 -25.640625 C 3.925781 -26.972656 3.53125 -28.679688 3.53125 -30.765625 C 3.53125 -34.390625 4.828125 -37.238281 7.421875 -39.3125 C 10.015625 -41.382812 13.46875 -42.421875 17.78125 -42.421875 C 22.125 -42.421875 25.539062 -41.304688 28.03125 -39.078125 C 30.53125 -36.847656 31.78125 -33.835938 31.78125 -30.046875 L 26.578125 -30.046875 C 26.578125 -32.359375 25.738281 -34.160156 24.0625 -35.453125 C 22.382812 -36.753906 20.269531 -37.40625 17.71875 -37.40625 C 15.164062 -37.40625 13.039062 -36.832031 11.34375 -35.6875 C 9.644531 -34.550781 8.796875 -32.988281 8.796875 -31 C 8.796875 -29.445312 9.273438 -28.238281 10.234375 -27.375 C 11.191406 -26.519531 12.4375 -25.84375 13.96875 -25.34375 C 15.507812 -24.84375 17.175781 -24.394531 18.96875 -24 C 20.601562 -23.601562 22.25 -23.144531 23.90625 -22.625 C 25.5625 -22.101562 27.078125 -21.421875 28.453125 -20.578125 C 29.828125 -19.742188 30.921875 -18.628906 31.734375 -17.234375 C 32.554688 -15.835938 32.96875 -14.0625 32.96875 -11.90625 C 32.96875 -9.269531 32.316406 -7.023438 31.015625 -5.171875 C 29.722656 -3.316406 27.957031 -1.898438 25.71875 -0.921875 C 23.488281 0.046875 20.976562 0.53125 18.1875 0.53125 Z M 18.1875 0.53125 "/></g></g></g><g fill="#f9f8f9" fill-opacity="1"><g transform="translate(185.50845, 134.451798)"><g><path d="M 44.53125 -32.3125 L 49.671875 -32.3125 L 38.65625 0 L 34.53125 0 L 25.375 -22.015625 L 16.28125 0 L 12.140625 0 L 1.203125 -32.3125 L 6.515625 -32.3125 L 14.546875 -8.5 L 24.46875 -31.84375 L 26.328125 -31.84375 L 36.265625 -8.3125 Z M 44.53125 -32.3125 "/></g></g></g><g fill="#f9f8f9" fill-opacity="1"><g transform="translate(232.901547, 134.451798)"><g><path d="M 4.90625 -37.9375 L 4.90625 -43.75 L 10.40625 -43.75 L 10.40625 -37.9375 Z M 5.140625 0 L 5.140625 -32.3125 L 10.234375 -32.3125 L 10.234375 0 Z M 5.140625 0 "/></g></g></g><g fill="#f9f8f9" fill-opacity="1"><g transform="translate(244.809397, 134.451798)"><g><path d="M 22.375 -32.078125 L 22.375 -27.828125 L 12.5 -27.828125 L 12.5 0 L 7.421875 0 L 7.421875 -27.828125 L 1.078125 -27.828125 L 1.078125 -32.078125 L 7.421875 -32.078125 L 7.421875 -34.703125 C 7.421875 -38.179688 8.25 -40.765625 9.90625 -42.453125 C 11.5625 -44.148438 14.1875 -45 17.78125 -45 L 22.375 -45 L 22.375 -40.9375 L 18.734375 -40.9375 C 16.421875 -40.9375 14.773438 -40.457031 13.796875 -39.5 C 12.816406 -38.539062 12.328125 -36.90625 12.328125 -34.59375 L 12.328125 -32.078125 Z M 22.375 -32.078125 "/></g></g></g><g fill="#f9f8f9" fill-opacity="1"><g transform="translate(264.556322, 134.451798)"><g><path d="M 18.484375 -4.734375 L 22.015625 -4.734375 L 22.015625 0 L 17.828125 0 C 14.359375 0 11.625 -1.003906 9.625 -3.015625 C 7.632812 -5.035156 6.640625 -7.800781 6.640625 -11.3125 L 6.640625 -27.703125 L 0.953125 -27.703125 L 0.953125 -28.609375 L 10.953125 -39.140625 L 11.734375 -39.140625 L 11.734375 -32.3125 L 21.84375 -32.3125 L 21.84375 -27.703125 L 11.734375 -27.703125 L 11.734375 -11.484375 C 11.734375 -9.296875 12.3125 -7.625 13.46875 -6.46875 C 14.625 -5.3125 16.296875 -4.734375 18.484375 -4.734375 Z M 18.484375 -4.734375 "/></g></g></g></svg>