<svg xmlns="http://www.w3.org/2000/svg" xmlns:xlink="http://www.w3.org/1999/xlink" width="283" zoomAndPan="magnify" viewBox="0 0 212.25 184.499993" height="246" preserveAspectRatio="xMidYMid meet" version="1.0"><defs><clipPath id="8f53754ea1"><path d="M 30.65625 82 L 180.128906 82 L 180.128906 101 L 30.65625 101 Z M 30.65625 82 " clip-rule="nonzero"/></clipPath><clipPath id="fa935822ff"><path d="M 30.65625 125 L 180.128906 125 L 180.128906 144.808594 L 30.65625 144.808594 Z M 30.65625 125 " clip-rule="nonzero"/></clipPath><clipPath id="2aecaf4b17"><path d="M 30.65625 38.683594 L 180.128906 38.683594 L 180.128906 58 L 30.65625 58 Z M 30.65625 38.683594 " clip-rule="nonzero"/></clipPath></defs><g clip-path="url(#8f53754ea1)"><path fill="#f9f8f9" d="M 170.789062 82.3125 L 40 82.3125 C 34.839844 82.3125 30.65625 86.492188 30.65625 91.652344 C 30.65625 96.8125 34.839844 100.996094 40 100.996094 L 170.789062 100.996094 C 175.945312 100.996094 180.128906 96.8125 180.128906 91.652344 C 180.128906 86.492188 175.945312 82.3125 170.789062 82.3125 Z M 170.789062 82.3125 " fill-opacity="1" fill-rule="nonzero"/></g><g clip-path="url(#fa935822ff)"><path fill="#f9f8f9" d="M 170.789062 125.90625 L 40 125.90625 C 34.839844 125.90625 30.65625 130.089844 30.65625 135.25 C 30.65625 140.410156 34.839844 144.589844 40 144.589844 L 170.789062 144.589844 C 175.945312 144.589844 180.128906 140.410156 180.128906 135.25 C 180.128906 130.089844 175.945312 125.90625 170.789062 125.90625 Z M 170.789062 125.90625 " fill-opacity="1" fill-rule="nonzero"/></g><g clip-path="url(#2aecaf4b17)"><path fill="#f9f8f9" d="M 40 57.398438 L 170.789062 57.398438 C 175.945312 57.398438 180.128906 53.21875 180.128906 48.058594 C 180.128906 42.898438 175.945312 38.714844 170.789062 38.714844 L 40 38.714844 C 34.839844 38.714844 30.65625 42.898438 30.65625 48.058594 C 30.65625 53.21875 34.839844 57.398438 40 57.398438 Z M 40 57.398438 " fill-opacity="1" fill-rule="nonzero"/></g></svg>