<svg xmlns="http://www.w3.org/2000/svg" xmlns:xlink="http://www.w3.org/1999/xlink" width="215" zoomAndPan="magnify" viewBox="0 0 161.25 162.75" height="217" preserveAspectRatio="xMidYMid meet" version="1.0"><path fill="#ec2426" d="M 128.105469 34.414062 C 101.570312 7.875 58.394531 7.875 31.867188 34.414062 C 5.34375 60.949219 5.332031 104.121094 31.867188 130.652344 C 32.65625 131.4375 33.460938 132.203125 34.289062 132.949219 C 35.113281 133.699219 35.957031 134.421875 36.820312 135.128906 C 37.679688 135.835938 38.558594 136.519531 39.453125 137.179688 C 40.347656 137.84375 41.257812 138.484375 42.1875 139.101562 C 43.113281 139.71875 44.054688 140.3125 45.007812 140.882812 C 45.964844 141.457031 46.933594 142.003906 47.914062 142.527344 C 48.898438 143.050781 49.890625 143.550781 50.898438 144.027344 C 51.90625 144.5 52.921875 144.953125 53.953125 145.378906 C 54.980469 145.804688 56.019531 146.203125 57.066406 146.578125 C 58.117188 146.953125 59.171875 147.300781 60.238281 147.625 C 61.304688 147.945312 62.378906 148.242188 63.457031 148.511719 C 64.539062 148.78125 65.625 149.027344 66.714844 149.242188 C 67.808594 149.460938 68.902344 149.648438 70.003906 149.8125 C 71.105469 149.976562 72.210938 150.113281 73.320312 150.21875 C 74.425781 150.328125 75.539062 150.410156 76.648438 150.464844 C 77.761719 150.519531 78.875 150.546875 79.988281 150.546875 C 81.101562 150.546875 82.214844 150.519531 83.324219 150.464844 C 84.4375 150.410156 85.546875 150.328125 86.65625 150.21875 C 87.761719 150.113281 88.867188 149.976562 89.96875 149.8125 C 91.070312 149.648438 92.167969 149.460938 93.257812 149.242188 C 94.351562 149.027344 95.4375 148.78125 96.515625 148.511719 C 97.597656 148.242188 98.671875 147.945312 99.734375 147.625 C 100.800781 147.300781 101.859375 146.953125 102.90625 146.578125 C 103.957031 146.203125 104.992188 145.804688 106.023438 145.378906 C 107.050781 144.953125 108.070312 144.5 109.074219 144.027344 C 110.082031 143.550781 111.078125 143.050781 112.058594 142.527344 C 113.042969 142.003906 114.011719 141.457031 114.964844 140.882812 C 115.921875 140.3125 116.863281 139.71875 117.789062 139.101562 C 118.714844 138.484375 119.625 137.84375 120.519531 137.179688 C 121.414062 136.519531 122.292969 135.835938 123.15625 135.128906 C 124.015625 134.421875 124.859375 133.699219 125.6875 132.949219 C 126.511719 132.203125 127.320312 131.4375 128.105469 130.652344 C 154.640625 104.121094 154.640625 60.945312 128.105469 34.414062 Z M 124.039062 126.589844 C 99.746094 150.886719 60.21875 150.886719 35.925781 126.589844 C 11.628906 102.296875 11.628906 62.769531 35.925781 38.476562 C 37.367188 37.035156 38.878906 35.667969 40.457031 34.375 C 42.035156 33.082031 43.671875 31.871094 45.371094 30.738281 C 47.066406 29.605469 48.816406 28.5625 50.617188 27.601562 C 52.414062 26.640625 54.257812 25.769531 56.144531 24.992188 C 58.027344 24.210938 59.945312 23.527344 61.898438 22.933594 C 63.851562 22.34375 65.828125 21.847656 67.828125 21.449219 C 69.832031 21.054688 71.847656 20.753906 73.875 20.554688 C 75.90625 20.355469 77.941406 20.253906 79.980469 20.253906 C 82.019531 20.253906 84.054688 20.355469 86.085938 20.554688 C 88.117188 20.753906 90.132812 21.054688 92.132812 21.449219 C 94.132812 21.847656 96.109375 22.34375 98.0625 22.933594 C 100.015625 23.527344 101.933594 24.210938 103.820312 24.992188 C 105.703125 25.769531 107.546875 26.640625 109.347656 27.601562 C 111.148438 28.5625 112.894531 29.605469 114.59375 30.738281 C 116.289062 31.871094 117.925781 33.082031 119.503906 34.375 C 121.082031 35.667969 122.59375 37.035156 124.039062 38.476562 C 148.332031 62.769531 148.332031 102.3125 124.039062 126.589844 Z M 124.039062 126.589844 " fill-opacity="1" fill-rule="nonzero"/><path fill="#ec2426" d="M 113.601562 57.070312 L 105.464844 48.917969 C 105.179688 48.628906 104.847656 48.410156 104.472656 48.253906 C 104.09375 48.097656 103.703125 48.019531 103.296875 48.019531 C 102.890625 48.019531 102.5 48.097656 102.125 48.253906 C 101.75 48.410156 101.417969 48.628906 101.128906 48.917969 L 79.984375 70.0625 L 58.832031 48.917969 C 58.546875 48.628906 58.214844 48.410156 57.839844 48.253906 C 57.464844 48.097656 57.070312 48.019531 56.664062 48.019531 C 56.257812 48.019531 55.867188 48.097656 55.492188 48.253906 C 55.117188 48.410156 54.785156 48.628906 54.496094 48.917969 L 46.363281 57.070312 C 46.078125 57.355469 45.855469 57.6875 45.699219 58.0625 C 45.542969 58.4375 45.46875 58.832031 45.46875 59.238281 C 45.46875 59.644531 45.542969 60.035156 45.699219 60.410156 C 45.855469 60.785156 46.078125 61.117188 46.363281 61.40625 L 67.511719 82.554688 L 46.363281 103.679688 C 46.078125 103.96875 45.855469 104.300781 45.699219 104.675781 C 45.542969 105.050781 45.46875 105.441406 45.46875 105.851562 C 45.46875 106.257812 45.542969 106.648438 45.699219 107.023438 C 45.855469 107.398438 46.078125 107.730469 46.363281 108.019531 L 54.515625 116.15625 C 54.804688 116.441406 55.136719 116.664062 55.511719 116.820312 C 55.886719 116.972656 56.277344 117.050781 56.683594 117.050781 C 57.089844 117.050781 57.480469 116.972656 57.859375 116.820312 C 58.234375 116.664062 58.566406 116.441406 58.851562 116.15625 L 80.003906 95.003906 L 101.148438 116.15625 C 101.4375 116.441406 101.769531 116.664062 102.144531 116.820312 C 102.519531 116.972656 102.910156 117.050781 103.316406 117.050781 C 103.722656 117.050781 104.113281 116.972656 104.488281 116.820312 C 104.867188 116.664062 105.199219 116.441406 105.484375 116.15625 L 113.621094 108.019531 C 113.910156 107.730469 114.128906 107.398438 114.285156 107.023438 C 114.441406 106.648438 114.519531 106.257812 114.519531 105.851562 C 114.519531 105.441406 114.441406 105.050781 114.285156 104.675781 C 114.128906 104.300781 113.910156 103.96875 113.621094 103.679688 L 92.472656 82.535156 L 113.621094 61.386719 C 113.90625 61.097656 114.121094 60.765625 114.273438 60.390625 C 114.425781 60.015625 114.5 59.628906 114.5 59.222656 C 114.5 58.820312 114.417969 58.429688 114.265625 58.058594 C 114.109375 57.683594 113.886719 57.355469 113.601562 57.070312 Z M 113.601562 57.070312 " fill-opacity="1" fill-rule="nonzero"/></svg>