<svg xmlns="http://www.w3.org/2000/svg" xmlns:xlink="http://www.w3.org/1999/xlink" width="26" zoomAndPan="magnify" viewBox="0 0 19.5 25.499999" height="34" preserveAspectRatio="xMidYMid meet" version="1.0"><defs><clipPath id="9a11c6b92a"><path d="M 1.257812 2.449219 L 17.347656 2.449219 L 17.347656 22.195312 L 1.257812 22.195312 Z M 1.257812 2.449219 " clip-rule="nonzero"/></clipPath></defs><g clip-path="url(#9a11c6b92a)"><path fill="#ffffff" d="M 15.761719 17.851562 C 14.785156 17.460938 13.457031 17.167969 11.980469 17.011719 C 13.890625 14.433594 16.003906 11.148438 16.003906 8.996094 C 16.003906 5.386719 13.070312 2.449219 9.457031 2.449219 C 5.847656 2.449219 2.910156 5.386719 2.910156 8.996094 C 2.910156 10.320312 3.742188 12.265625 5.386719 14.777344 C 5.890625 15.546875 6.425781 16.304688 6.945312 17.011719 C 5.46875 17.167969 4.136719 17.460938 3.15625 17.851562 C 1.59375 18.476562 1.265625 19.191406 1.265625 19.683594 C 1.265625 21.5 5.484375 22.480469 9.457031 22.480469 C 13.429688 22.480469 17.652344 21.5 17.652344 19.683594 C 17.652344 19.191406 17.324219 18.476562 15.761719 17.851562 Z M 3.539062 8.996094 C 3.539062 5.734375 6.191406 3.078125 9.457031 3.078125 C 12.722656 3.078125 15.378906 5.734375 15.378906 8.996094 C 15.378906 10.210938 14.59375 12.03125 13.039062 14.40625 C 11.808594 16.289062 10.378906 18.089844 9.457031 19.238281 C 7.621094 16.941406 3.539062 11.726562 3.539062 8.996094 Z M 9.214844 19.933594 C 9.273438 20.007812 9.363281 20.050781 9.457031 20.050781 C 9.554688 20.050781 9.644531 20.007812 9.703125 19.933594 L 9.792969 19.820312 C 9.996094 19.570312 10.222656 19.28125 10.472656 18.96875 C 12.03125 19.101562 12.652344 19.480469 12.703125 19.609375 C 12.675781 19.671875 12.46875 19.863281 11.800781 20.039062 C 11.164062 20.203125 10.332031 20.296875 9.457031 20.296875 C 8.582031 20.296875 7.75 20.203125 7.117188 20.039062 C 6.445312 19.863281 6.238281 19.671875 6.214844 19.609375 C 6.265625 19.480469 6.886719 19.101562 8.445312 18.96875 C 8.738281 19.339844 9 19.664062 9.214844 19.933594 Z M 14.9375 21.140625 C 13.476562 21.601562 11.53125 21.855469 9.457031 21.855469 C 7.382812 21.855469 5.4375 21.601562 3.980469 21.140625 C 2.671875 20.726562 1.890625 20.183594 1.890625 19.683594 C 1.890625 18.882812 3.941406 17.898438 7.386719 17.597656 C 7.59375 17.871094 7.796875 18.136719 7.988281 18.386719 C 7.046875 18.503906 5.585938 18.816406 5.585938 19.609375 C 5.585938 20.644531 8.019531 20.921875 9.457031 20.921875 C 10.898438 20.921875 13.332031 20.644531 13.332031 19.609375 C 13.332031 18.816406 11.871094 18.503906 10.929688 18.386719 C 11.125 18.136719 11.332031 17.871094 11.539062 17.597656 C 14.976562 17.898438 17.027344 18.886719 17.027344 19.683594 C 17.027344 20.183594 16.246094 20.726562 14.9375 21.140625 Z M 12.792969 8.992188 C 12.792969 7.152344 11.296875 5.65625 9.457031 5.65625 C 7.621094 5.65625 6.125 7.152344 6.125 8.992188 C 6.125 10.828125 7.621094 12.324219 9.457031 12.324219 C 11.296875 12.324219 12.792969 10.828125 12.792969 8.992188 Z M 9.457031 11.699219 C 7.964844 11.699219 6.75 10.484375 6.75 8.992188 C 6.75 7.496094 7.964844 6.28125 9.457031 6.28125 C 10.953125 6.28125 12.164062 7.496094 12.164062 8.992188 C 12.164062 10.484375 10.953125 11.699219 9.457031 11.699219 Z M 9.457031 11.699219 " fill-opacity="1" fill-rule="nonzero"/></g></svg>