<svg xmlns="http://www.w3.org/2000/svg" xmlns:xlink="http://www.w3.org/1999/xlink" width="500" zoomAndPan="magnify" viewBox="0 0 375 374.999991" height="500" preserveAspectRatio="xMidYMid meet" version="1.0"><defs><g/><clipPath id="a2a72a42b8"><path d="M 196 102.898438 L 249.183594 102.898438 L 249.183594 204 L 196 204 Z M 196 102.898438 " clip-rule="nonzero"/></clipPath></defs><rect x="-37.5" width="450" fill="#ffffff" y="-37.499999" height="449.999989" fill-opacity="1"/><rect x="-37.5" width="450" fill="#f9f8f9" y="-37.499999" height="449.999989" fill-opacity="1"/><g fill="#242424" fill-opacity="1"><g transform="translate(89.610204, 247.026545)"><g><path d="M 28.21875 0 L 25.671875 -6.890625 L 11.234375 -6.890625 L 8.75 0 L 0.46875 0 L 14.65625 -36.234375 L 22.046875 -36.234375 L 36.703125 0 Z M 18.421875 -26.65625 L 13.71875 -13.71875 L 23.1875 -13.71875 Z M 18.421875 -26.65625 "/></g></g></g><g fill="#242424" fill-opacity="1"><g transform="translate(123.824451, 247.026545)"><g><path d="M 4.140625 0 L 4.140625 -36.234375 L 12.015625 -36.234375 L 12.015625 0 Z M 4.140625 0 "/></g></g></g><g fill="#242424" fill-opacity="1"><g transform="translate(137.023411, 247.026545)"><g><path d="M 48.5625 0 L 40.578125 0 L 37.015625 -23.65625 L 26.1875 -0.046875 L 24.28125 -0.046875 L 13.453125 -23.65625 L 9.890625 0 L 1.859375 0 L 7.5625 -36.234375 L 15.421875 -36.234375 L 25.203125 -14.03125 L 35.046875 -36.234375 L 42.90625 -36.234375 Z M 48.5625 0 "/></g></g></g><path fill="#242424" d="M 142.652344 156.910156 C 143.542969 156.917969 144.597656 157.023438 145.855469 157.246094 C 150.890625 158.105469 156.253906 159.371094 158.632812 165.359375 C 159.902344 168.582031 158.980469 170.75 155.320312 170.195312 C 151.507812 169.621094 144.363281 168.726562 140.960938 167.484375 C 136.824219 165.96875 137.691406 161.367188 138.453125 159.027344 C 138.875 157.722656 139.996094 156.878906 142.652344 156.910156 Z M 186.25 111.4375 C 177.121094 111.4375 167.792969 111.398438 158.867188 112.632812 C 154.738281 113.207031 152.066406 115.640625 150.152344 118.460938 C 145.800781 124.871094 142.992188 131.632812 140.542969 138.480469 L 129.597656 138.480469 C 126.550781 138.480469 124.730469 140.847656 125.527344 143.796875 C 126.394531 147.050781 127.386719 148.640625 132.15625 149.753906 L 133.984375 150.175781 C 132.554688 152.894531 131.519531 155.761719 131.519531 158.332031 L 131.519531 179.375 C 131.519531 182.898438 133.957031 185.875 136.792969 186.980469 L 136.792969 196.832031 C 136.792969 198.757812 138.34375 200.304688 140.265625 200.304688 L 150.105469 200.304688 C 152.023438 200.304688 153.578125 198.753906 153.578125 196.832031 L 153.578125 187.476562 L 202.539062 187.476562 L 202.539062 182.136719 C 202.539062 179.472656 204.035156 176.796875 205.890625 174.890625 L 205.890625 173.839844 C 205.273438 173.296875 203.789062 171.269531 203.019531 169.0625 C 201.425781 169.839844 199.683594 170.285156 197.914062 170.285156 L 174.585938 170.285156 C 170.074219 170.285156 165.636719 167.457031 163.914062 163.25 C 163.09375 161.261719 163.492188 159.199219 165.277344 159.199219 L 202.527344 159.199219 L 202.527344 152.910156 C 196.5 151.5 191.371094 147.425781 189.621094 141.71875 C 188.496094 141.734375 187.335938 141.765625 186.246094 141.765625 C 169.507812 141.765625 146.949219 139.519531 146.949219 139.519531 C 148.972656 133.410156 152.1875 127.917969 155.789062 122.078125 C 157.46875 119.359375 159.96875 117.890625 162.6875 117.703125 C 169.878906 117.210938 178.382812 116.933594 186.246094 116.917969 C 187.148438 116.925781 188.074219 116.941406 188.988281 116.949219 L 188.988281 112.789062 C 188.988281 112.335938 189.023438 111.886719 189.058594 111.441406 C 188.125 111.4375 187.183594 111.4375 186.25 111.4375 Z M 186.25 111.4375 " fill-opacity="1" fill-rule="evenodd"/><g clip-path="url(#a2a72a42b8)"><path fill="#242424" d="M 234.148438 114.757812 L 234.148438 117.355469 C 234.148438 118.703125 233.058594 119.789062 231.710938 119.789062 L 213.324219 119.789062 C 211.976562 119.789062 210.886719 118.703125 210.886719 117.355469 L 210.886719 114.757812 C 210.886719 113.410156 211.972656 112.332031 213.324219 112.332031 L 231.714844 112.332031 C 233.058594 112.332031 234.148438 113.410156 234.148438 114.757812 Z M 249.015625 112.785156 C 249.015625 107.332031 244.625 102.933594 239.171875 102.933594 L 205.871094 102.933594 C 200.417969 102.933594 196.027344 107.332031 196.027344 112.785156 L 196.027344 137.417969 C 196.027344 142.871094 200.417969 147.261719 205.871094 147.261719 L 209.570312 147.261719 L 209.570312 166.558594 C 209.570312 167.609375 210 168.085938 210.5625 168.582031 L 213.882812 171.527344 C 215.410156 172.875 215.335938 175.429688 213.941406 176.820312 L 210.597656 180.128906 C 209.921875 180.796875 209.574219 181.242188 209.574219 182.136719 L 209.574219 191.078125 C 209.484375 191.988281 209.742188 192.996094 210.34375 193.871094 C 224.160156 206.886719 222.460938 206.0625 234.210938 194.429688 C 235.113281 193.53125 235.398438 192.433594 235.464844 191.242188 L 235.464844 147.261719 L 239.171875 147.261719 C 244.625 147.261719 249.015625 142.875 249.015625 137.417969 Z M 249.015625 112.785156 " fill-opacity="1" fill-rule="nonzero"/></g><g fill="#242424" fill-opacity="1"><g transform="translate(191.582862, 247.026545)"><g><path d="M 15.734375 0.46875 C 13.078125 0.46875 10.75 -0.00390625 8.75 -0.953125 C 6.75 -1.898438 5.1875 -3.242188 4.0625 -4.984375 C 2.9375 -6.734375 2.375 -8.800781 2.375 -11.1875 L 6.984375 -11.1875 C 6.984375 -8.90625 7.8125 -7.132812 9.46875 -5.875 C 11.125 -4.613281 13.195312 -3.984375 15.6875 -3.984375 C 17.207031 -3.984375 18.585938 -4.234375 19.828125 -4.734375 C 21.066406 -5.234375 22.046875 -5.957031 22.765625 -6.90625 C 23.492188 -7.851562 23.859375 -8.96875 23.859375 -10.25 C 23.859375 -11.664062 23.4375 -12.757812 22.59375 -13.53125 C 21.75 -14.3125 20.632812 -14.925781 19.25 -15.375 C 17.875 -15.820312 16.410156 -16.21875 14.859375 -16.5625 C 13.441406 -16.90625 12.039062 -17.285156 10.65625 -17.703125 C 9.28125 -18.117188 8.015625 -18.679688 6.859375 -19.390625 C 5.703125 -20.097656 4.773438 -21.03125 4.078125 -22.1875 C 3.390625 -23.34375 3.046875 -24.816406 3.046875 -26.609375 C 3.046875 -29.742188 4.164062 -32.207031 6.40625 -34 C 8.65625 -35.800781 11.644531 -36.703125 15.375 -36.703125 C 19.132812 -36.703125 22.09375 -35.734375 24.25 -33.796875 C 26.40625 -31.867188 27.484375 -29.265625 27.484375 -25.984375 L 22.984375 -25.984375 C 22.984375 -27.984375 22.257812 -29.546875 20.8125 -30.671875 C 19.363281 -31.796875 17.535156 -32.359375 15.328125 -32.359375 C 13.117188 -32.359375 11.28125 -31.863281 9.8125 -30.875 C 8.34375 -29.894531 7.609375 -28.539062 7.609375 -26.8125 C 7.609375 -25.46875 8.019531 -24.421875 8.84375 -23.671875 C 9.675781 -22.929688 10.753906 -22.347656 12.078125 -21.921875 C 13.410156 -21.492188 14.851562 -21.109375 16.40625 -20.765625 C 17.820312 -20.410156 19.242188 -20.007812 20.671875 -19.5625 C 22.109375 -19.113281 23.421875 -18.523438 24.609375 -17.796875 C 25.804688 -17.078125 26.753906 -16.113281 27.453125 -14.90625 C 28.160156 -13.695312 28.515625 -12.160156 28.515625 -10.296875 C 28.515625 -8.023438 27.953125 -6.085938 26.828125 -4.484375 C 25.710938 -2.878906 24.1875 -1.648438 22.25 -0.796875 C 20.320312 0.046875 18.148438 0.46875 15.734375 0.46875 Z M 15.734375 0.46875 "/></g></g></g><g fill="#242424" fill-opacity="1"><g transform="translate(219.53393, 247.026545)"><g><path d="M 38.515625 -27.953125 L 42.96875 -27.953125 L 33.4375 0 L 29.875 0 L 21.953125 -19.046875 L 14.078125 0 L 10.515625 0 L 1.03125 -27.953125 L 5.640625 -27.953125 L 12.578125 -7.34375 L 21.171875 -27.546875 L 22.78125 -27.546875 L 31.375 -7.203125 Z M 38.515625 -27.953125 "/></g></g></g><g fill="#242424" fill-opacity="1"><g transform="translate(260.528973, 247.026545)"><g><path d="M 4.25 -32.8125 L 4.25 -37.84375 L 9 -37.84375 L 9 -32.8125 Z M 4.453125 0 L 4.453125 -27.953125 L 8.859375 -27.953125 L 8.859375 0 Z M 4.453125 0 "/></g></g></g><g fill="#242424" fill-opacity="1"><g transform="translate(270.829267, 247.026545)"><g><path d="M 19.359375 -27.75 L 19.359375 -24.078125 L 10.8125 -24.078125 L 10.8125 0 L 6.421875 0 L 6.421875 -24.078125 L 0.9375 -24.078125 L 0.9375 -27.75 L 6.421875 -27.75 L 6.421875 -30.03125 C 6.421875 -33.03125 7.132812 -35.257812 8.5625 -36.71875 C 10 -38.1875 12.269531 -38.921875 15.375 -38.921875 L 19.359375 -38.921875 L 19.359375 -35.40625 L 16.203125 -35.40625 C 14.203125 -35.40625 12.773438 -34.988281 11.921875 -34.15625 C 11.078125 -33.332031 10.65625 -31.921875 10.65625 -29.921875 L 10.65625 -27.75 Z M 19.359375 -27.75 "/></g></g></g><g fill="#242424" fill-opacity="1"><g transform="translate(287.910363, 247.026545)"><g><path d="M 16 -4.09375 L 19.046875 -4.09375 L 19.046875 0 L 15.421875 0 C 12.421875 0 10.054688 -0.867188 8.328125 -2.609375 C 6.609375 -4.359375 5.75 -6.75 5.75 -9.78125 L 5.75 -23.96875 L 0.828125 -23.96875 L 0.828125 -24.75 L 9.46875 -33.859375 L 10.140625 -33.859375 L 10.140625 -27.953125 L 18.890625 -27.953125 L 18.890625 -23.96875 L 10.140625 -23.96875 L 10.140625 -9.9375 C 10.140625 -8.039062 10.640625 -6.59375 11.640625 -5.59375 C 12.648438 -4.59375 14.101562 -4.09375 16 -4.09375 Z M 16 -4.09375 "/></g></g></g><g fill="#242424" fill-opacity="1"><g transform="translate(115.242836, 268.661642)"><g><path d="M 5.421875 0.078125 C 4.515625 0.078125 3.703125 -0.117188 2.984375 -0.515625 C 2.265625 -0.910156 1.695312 -1.457031 1.28125 -2.15625 C 0.875 -2.863281 0.671875 -3.65625 0.671875 -4.53125 C 0.671875 -5.40625 0.875 -6.191406 1.28125 -6.890625 C 1.695312 -7.597656 2.265625 -8.148438 2.984375 -8.546875 C 3.710938 -8.941406 4.523438 -9.140625 5.421875 -9.140625 C 6.097656 -9.140625 6.71875 -9.023438 7.28125 -8.796875 C 7.851562 -8.578125 8.34375 -8.253906 8.75 -7.828125 L 8.140625 -7.21875 C 7.429688 -7.9375 6.535156 -8.296875 5.453125 -8.296875 C 4.734375 -8.296875 4.078125 -8.128906 3.484375 -7.796875 C 2.898438 -7.472656 2.441406 -7.023438 2.109375 -6.453125 C 1.785156 -5.878906 1.625 -5.238281 1.625 -4.53125 C 1.625 -3.820312 1.785156 -3.179688 2.109375 -2.609375 C 2.441406 -2.046875 2.898438 -1.597656 3.484375 -1.265625 C 4.078125 -0.941406 4.734375 -0.78125 5.453125 -0.78125 C 6.535156 -0.78125 7.429688 -1.140625 8.140625 -1.859375 L 8.75 -1.25 C 8.34375 -0.820312 7.851562 -0.492188 7.28125 -0.265625 C 6.707031 -0.0351562 6.085938 0.078125 5.421875 0.078125 Z M 5.421875 0.078125 "/></g></g></g><g fill="#242424" fill-opacity="1"><g transform="translate(132.396404, 268.661642)"><g><path d="M 7.15625 -2.421875 L 2.109375 -2.421875 L 1.015625 0 L 0.03125 0 L 4.171875 -9.0625 L 5.109375 -9.0625 L 9.265625 0 L 8.25 0 Z M 6.8125 -3.203125 L 4.640625 -8.0625 L 2.46875 -3.203125 Z M 6.8125 -3.203125 "/></g></g></g><g fill="#242424" fill-opacity="1"><g transform="translate(149.524074, 268.661642)"><g><path d="M 7.671875 0 L 5.59375 -2.921875 C 5.363281 -2.890625 5.125 -2.875 4.875 -2.875 L 2.4375 -2.875 L 2.4375 0 L 1.484375 0 L 1.484375 -9.0625 L 4.875 -9.0625 C 6.03125 -9.0625 6.9375 -8.785156 7.59375 -8.234375 C 8.25 -7.679688 8.578125 -6.921875 8.578125 -5.953125 C 8.578125 -5.242188 8.394531 -4.644531 8.03125 -4.15625 C 7.675781 -3.675781 7.164062 -3.328125 6.5 -3.109375 L 8.71875 0 Z M 4.84375 -3.6875 C 5.738281 -3.6875 6.421875 -3.882812 6.890625 -4.28125 C 7.367188 -4.6875 7.609375 -5.242188 7.609375 -5.953125 C 7.609375 -6.691406 7.367188 -7.253906 6.890625 -7.640625 C 6.421875 -8.035156 5.738281 -8.234375 4.84375 -8.234375 L 2.4375 -8.234375 L 2.4375 -3.6875 Z M 4.84375 -3.6875 "/></g></g></g><g fill="#242424" fill-opacity="1"><g transform="translate(166.729435, 268.661642)"><g/></g></g><g fill="#242424" fill-opacity="1"><g transform="translate(177.965232, 268.661642)"><g><path d="M 7.671875 0 L 5.59375 -2.921875 C 5.363281 -2.890625 5.125 -2.875 4.875 -2.875 L 2.4375 -2.875 L 2.4375 0 L 1.484375 0 L 1.484375 -9.0625 L 4.875 -9.0625 C 6.03125 -9.0625 6.9375 -8.785156 7.59375 -8.234375 C 8.25 -7.679688 8.578125 -6.921875 8.578125 -5.953125 C 8.578125 -5.242188 8.394531 -4.644531 8.03125 -4.15625 C 7.675781 -3.675781 7.164062 -3.328125 6.5 -3.109375 L 8.71875 0 Z M 4.84375 -3.6875 C 5.738281 -3.6875 6.421875 -3.882812 6.890625 -4.28125 C 7.367188 -4.6875 7.609375 -5.242188 7.609375 -5.953125 C 7.609375 -6.691406 7.367188 -7.253906 6.890625 -7.640625 C 6.421875 -8.035156 5.738281 -8.234375 4.84375 -8.234375 L 2.4375 -8.234375 L 2.4375 -3.6875 Z M 4.84375 -3.6875 "/></g></g></g><g fill="#242424" fill-opacity="1"><g transform="translate(195.1706, 268.661642)"><g><path d="M 7.890625 -0.828125 L 7.890625 0 L 1.484375 0 L 1.484375 -9.0625 L 7.6875 -9.0625 L 7.6875 -8.234375 L 2.4375 -8.234375 L 2.4375 -5.015625 L 7.125 -5.015625 L 7.125 -4.203125 L 2.4375 -4.203125 L 2.4375 -0.828125 Z M 7.890625 -0.828125 "/></g></g></g><g fill="#242424" fill-opacity="1"><g transform="translate(211.676709, 268.661642)"><g><path d="M 9.046875 -9.0625 L 9.046875 0 L 8.265625 0 L 2.4375 -7.359375 L 2.4375 0 L 1.484375 0 L 1.484375 -9.0625 L 2.265625 -9.0625 L 8.109375 -1.703125 L 8.109375 -9.0625 Z M 9.046875 -9.0625 "/></g></g></g><g fill="#242424" fill-opacity="1"><g transform="translate(230.047497, 268.661642)"><g><path d="M 3.234375 -8.234375 L 0.046875 -8.234375 L 0.046875 -9.0625 L 7.390625 -9.0625 L 7.390625 -8.234375 L 4.203125 -8.234375 L 4.203125 0 L 3.234375 0 Z M 3.234375 -8.234375 "/></g></g></g><g fill="#242424" fill-opacity="1"><g transform="translate(245.323436, 268.661642)"><g><path d="M 7.15625 -2.421875 L 2.109375 -2.421875 L 1.015625 0 L 0.03125 0 L 4.171875 -9.0625 L 5.109375 -9.0625 L 9.265625 0 L 8.25 0 Z M 6.8125 -3.203125 L 4.640625 -8.0625 L 2.46875 -3.203125 Z M 6.8125 -3.203125 "/></g></g></g><g fill="#242424" fill-opacity="1"><g transform="translate(262.451109, 268.661642)"><g><path d="M 1.484375 -9.0625 L 2.4375 -9.0625 L 2.4375 -0.828125 L 7.515625 -0.828125 L 7.515625 0 L 1.484375 0 Z M 1.484375 -9.0625 "/></g></g></g><g fill="#242424" fill-opacity="1"><g transform="translate(277.921288, 268.661642)"><g><path d="M 3.984375 0.078125 C 3.304688 0.078125 2.65625 -0.0234375 2.03125 -0.234375 C 1.414062 -0.453125 0.941406 -0.738281 0.609375 -1.09375 L 0.984375 -1.84375 C 1.316406 -1.507812 1.753906 -1.238281 2.296875 -1.03125 C 2.835938 -0.832031 3.398438 -0.734375 3.984375 -0.734375 C 4.785156 -0.734375 5.390625 -0.878906 5.796875 -1.171875 C 6.203125 -1.472656 6.40625 -1.863281 6.40625 -2.34375 C 6.40625 -2.707031 6.296875 -2.992188 6.078125 -3.203125 C 5.859375 -3.421875 5.585938 -3.585938 5.265625 -3.703125 C 4.953125 -3.828125 4.507812 -3.957031 3.9375 -4.09375 C 3.257812 -4.269531 2.71875 -4.4375 2.3125 -4.59375 C 1.90625 -4.75 1.554688 -4.988281 1.265625 -5.3125 C 0.972656 -5.644531 0.828125 -6.09375 0.828125 -6.65625 C 0.828125 -7.113281 0.945312 -7.53125 1.1875 -7.90625 C 1.425781 -8.28125 1.796875 -8.578125 2.296875 -8.796875 C 2.804688 -9.023438 3.429688 -9.140625 4.171875 -9.140625 C 4.691406 -9.140625 5.195312 -9.066406 5.6875 -8.921875 C 6.1875 -8.785156 6.617188 -8.59375 6.984375 -8.34375 L 6.65625 -7.578125 C 6.28125 -7.828125 5.875 -8.015625 5.4375 -8.140625 C 5.007812 -8.265625 4.585938 -8.328125 4.171875 -8.328125 C 3.378906 -8.328125 2.78125 -8.171875 2.375 -7.859375 C 1.976562 -7.554688 1.78125 -7.164062 1.78125 -6.6875 C 1.78125 -6.320312 1.890625 -6.03125 2.109375 -5.8125 C 2.328125 -5.59375 2.601562 -5.421875 2.9375 -5.296875 C 3.269531 -5.179688 3.71875 -5.054688 4.28125 -4.921875 C 4.9375 -4.753906 5.46875 -4.59375 5.875 -4.4375 C 6.289062 -4.28125 6.640625 -4.035156 6.921875 -3.703125 C 7.210938 -3.378906 7.359375 -2.941406 7.359375 -2.390625 C 7.359375 -1.929688 7.234375 -1.515625 6.984375 -1.140625 C 6.742188 -0.765625 6.367188 -0.46875 5.859375 -0.25 C 5.347656 -0.03125 4.722656 0.078125 3.984375 0.078125 Z M 3.984375 0.078125 "/></g></g></g></svg>