<svg xmlns="http://www.w3.org/2000/svg" xmlns:xlink="http://www.w3.org/1999/xlink" width="500" zoomAndPan="magnify" viewBox="0 0 375 374.999991" height="500" preserveAspectRatio="xMidYMid meet" version="1.0"><defs><g/><clipPath id="b4f82659ba"><path d="M 129 124.421875 L 190.390625 124.421875 L 190.390625 241 L 129 241 Z M 129 124.421875 " clip-rule="nonzero"/></clipPath></defs><g fill="#f9f8f9" fill-opacity="1"><g transform="translate(197.918978, 176.016271)"><g><path d="M 32.703125 0 L 29.765625 -7.984375 L 13.015625 -7.984375 L 10.140625 0 L 0.546875 0 L 16.984375 -42 L 25.5625 -42 L 42.546875 0 Z M 21.359375 -30.90625 L 15.90625 -15.90625 L 26.875 -15.90625 Z M 21.359375 -30.90625 "/></g></g></g><g fill="#f9f8f9" fill-opacity="1"><g transform="translate(237.5802, 176.016271)"><g><path d="M 4.796875 0 L 4.796875 -42 L 13.921875 -42 L 13.921875 0 Z M 4.796875 0 "/></g></g></g><g fill="#f9f8f9" fill-opacity="1"><g transform="translate(252.88046, 176.016271)"><g><path d="M 56.28125 0 L 47.046875 0 L 42.90625 -27.421875 L 30.359375 -0.0625 L 28.140625 -0.0625 L 15.59375 -27.421875 L 11.453125 0 L 2.15625 0 L 8.765625 -42 L 17.875 -42 L 29.21875 -16.265625 L 40.625 -42 L 49.734375 -42 Z M 56.28125 0 "/></g></g></g><path fill="#f9f8f9" d="M 67.222656 187.03125 C 68.253906 187.039062 69.480469 187.160156 70.9375 187.417969 C 76.773438 188.414062 82.992188 189.882812 85.746094 196.824219 C 87.222656 200.5625 86.148438 203.070312 81.90625 202.433594 C 77.488281 201.765625 69.207031 200.730469 65.261719 199.289062 C 60.464844 197.53125 61.472656 192.195312 62.355469 189.484375 C 62.847656 187.972656 64.144531 186.992188 67.222656 187.03125 Z M 117.761719 134.316406 C 107.179688 134.316406 96.367188 134.269531 86.019531 135.699219 C 81.230469 136.367188 78.136719 139.191406 75.917969 142.457031 C 70.871094 149.886719 67.617188 157.726562 64.777344 165.664062 L 52.089844 165.664062 C 48.554688 165.664062 46.449219 168.410156 47.371094 171.828125 C 48.375 175.601562 49.527344 177.445312 55.054688 178.734375 L 57.171875 179.222656 C 55.519531 182.375 54.316406 185.699219 54.316406 188.679688 L 54.316406 213.074219 C 54.316406 217.15625 57.144531 220.609375 60.429688 221.890625 L 60.429688 233.308594 C 60.429688 235.539062 62.226562 237.335938 64.457031 237.335938 L 75.863281 237.335938 C 78.089844 237.335938 79.890625 235.539062 79.890625 233.308594 L 79.890625 222.460938 L 136.648438 222.460938 L 136.648438 216.273438 C 136.648438 213.1875 138.378906 210.082031 140.535156 207.871094 L 140.535156 206.65625 C 139.820312 206.027344 138.09375 203.675781 137.203125 201.117188 C 135.359375 202.019531 133.335938 202.539062 131.285156 202.539062 L 104.242188 202.539062 C 99.011719 202.539062 93.867188 199.257812 91.871094 194.378906 C 90.917969 192.074219 91.382812 189.683594 93.453125 189.683594 L 136.632812 189.683594 L 136.632812 182.394531 C 129.644531 180.757812 123.699219 176.035156 121.671875 169.421875 C 120.367188 169.441406 119.023438 169.476562 117.761719 169.476562 C 98.351562 169.476562 72.207031 166.867188 72.207031 166.867188 C 74.550781 159.785156 78.273438 153.417969 82.453125 146.652344 C 84.402344 143.5 87.296875 141.796875 90.449219 141.578125 C 98.785156 141.007812 108.644531 140.683594 117.761719 140.667969 C 118.804688 140.675781 119.878906 140.695312 120.941406 140.707031 L 120.941406 135.882812 C 120.941406 135.355469 120.976562 134.835938 121.019531 134.320312 C 119.933594 134.316406 118.84375 134.316406 117.761719 134.316406 Z M 117.761719 134.316406 " fill-opacity="1" fill-rule="evenodd"/><g clip-path="url(#b4f82659ba)"><path fill="#f9f8f9" d="M 173.289062 138.164062 L 173.289062 141.175781 C 173.289062 142.738281 172.027344 143.996094 170.46875 143.996094 L 149.148438 143.996094 C 147.585938 143.996094 146.324219 142.738281 146.324219 141.175781 L 146.324219 138.164062 C 146.324219 136.601562 147.585938 135.351562 149.148438 135.351562 L 170.46875 135.351562 C 172.027344 135.351562 173.289062 136.601562 173.289062 138.164062 Z M 190.523438 135.878906 C 190.523438 129.554688 185.4375 124.457031 179.113281 124.457031 L 140.507812 124.457031 C 134.191406 124.457031 129.097656 129.558594 129.097656 135.878906 L 129.097656 164.433594 C 129.097656 170.757812 134.191406 175.84375 140.507812 175.84375 L 144.800781 175.84375 L 144.800781 198.21875 C 144.800781 199.433594 145.296875 199.984375 145.949219 200.5625 L 149.796875 203.976562 C 151.566406 205.535156 151.480469 208.5 149.863281 210.109375 L 145.988281 213.949219 C 145.207031 214.722656 144.800781 215.234375 144.800781 216.273438 L 144.800781 226.640625 C 144.699219 227.691406 145 228.863281 145.695312 229.878906 C 161.710938 244.96875 159.742188 244.011719 173.363281 230.527344 C 174.410156 229.484375 174.738281 228.210938 174.816406 226.828125 L 174.816406 175.847656 L 179.113281 175.847656 C 185.4375 175.847656 190.523438 170.757812 190.523438 164.433594 Z M 190.523438 135.878906 " fill-opacity="1" fill-rule="nonzero"/></g><g fill="#f9f8f9" fill-opacity="1"><g transform="translate(195.730376, 230.282137)"><g><path d="M 18.234375 0.546875 C 15.160156 0.546875 12.460938 -0.00390625 10.140625 -1.109375 C 7.816406 -2.210938 6.003906 -3.769531 4.703125 -5.78125 C 3.410156 -7.800781 2.765625 -10.191406 2.765625 -12.953125 L 8.09375 -12.953125 C 8.09375 -10.316406 9.050781 -8.269531 10.96875 -6.8125 C 12.894531 -5.351562 15.300781 -4.625 18.1875 -4.625 C 19.9375 -4.625 21.53125 -4.910156 22.96875 -5.484375 C 24.414062 -6.066406 25.554688 -6.90625 26.390625 -8 C 27.234375 -9.101562 27.65625 -10.394531 27.65625 -11.875 C 27.65625 -13.519531 27.164062 -14.789062 26.1875 -15.6875 C 25.207031 -16.59375 23.914062 -17.300781 22.3125 -17.8125 C 20.71875 -18.332031 19.019531 -18.796875 17.21875 -19.203125 C 15.582031 -19.597656 13.960938 -20.035156 12.359375 -20.515625 C 10.753906 -20.992188 9.28125 -21.644531 7.9375 -22.46875 C 6.601562 -23.289062 5.535156 -24.367188 4.734375 -25.703125 C 3.941406 -27.046875 3.546875 -28.757812 3.546875 -30.84375 C 3.546875 -34.476562 4.84375 -37.335938 7.4375 -39.421875 C 10.039062 -41.503906 13.5 -42.546875 17.8125 -42.546875 C 22.175781 -42.546875 25.609375 -41.421875 28.109375 -39.171875 C 30.609375 -36.929688 31.859375 -33.914062 31.859375 -30.125 L 26.640625 -30.125 C 26.640625 -32.4375 25.796875 -34.242188 24.109375 -35.546875 C 22.429688 -36.847656 20.316406 -37.5 17.765625 -37.5 C 15.203125 -37.5 13.066406 -36.925781 11.359375 -35.78125 C 9.660156 -34.644531 8.8125 -33.078125 8.8125 -31.078125 C 8.8125 -29.515625 9.289062 -28.300781 10.25 -27.4375 C 11.21875 -26.582031 12.46875 -25.90625 14 -25.40625 C 15.539062 -24.90625 17.210938 -24.457031 19.015625 -24.0625 C 20.660156 -23.65625 22.3125 -23.191406 23.96875 -22.671875 C 25.625 -22.160156 27.140625 -21.484375 28.515625 -20.640625 C 29.898438 -19.796875 31.003906 -18.675781 31.828125 -17.28125 C 32.648438 -15.882812 33.0625 -14.101562 33.0625 -11.9375 C 33.0625 -9.300781 32.410156 -7.050781 31.109375 -5.1875 C 29.804688 -3.332031 28.035156 -1.910156 25.796875 -0.921875 C 23.554688 0.0546875 21.035156 0.546875 18.234375 0.546875 Z M 18.234375 0.546875 "/></g></g></g><g fill="#f9f8f9" fill-opacity="1"><g transform="translate(228.131309, 230.282137)"><g><path d="M 44.640625 -32.40625 L 49.796875 -32.40625 L 38.765625 0 L 34.625 0 L 25.4375 -22.078125 L 16.3125 0 L 12.1875 0 L 1.203125 -32.40625 L 6.546875 -32.40625 L 14.578125 -8.515625 L 24.546875 -31.921875 L 26.40625 -31.921875 L 36.359375 -8.34375 Z M 44.640625 -32.40625 "/></g></g></g><g fill="#f9f8f9" fill-opacity="1"><g transform="translate(275.652843, 230.282137)"><g><path d="M 4.921875 -38.046875 L 4.921875 -43.859375 L 10.4375 -43.859375 L 10.4375 -38.046875 Z M 5.15625 0 L 5.15625 -32.40625 L 10.265625 -32.40625 L 10.265625 0 Z M 5.15625 0 "/></g></g></g><g fill="#f9f8f9" fill-opacity="1"><g transform="translate(287.592964, 230.282137)"><g><path d="M 22.4375 -32.15625 L 22.4375 -27.90625 L 12.546875 -27.90625 L 12.546875 0 L 7.4375 0 L 7.4375 -27.90625 L 1.078125 -27.90625 L 1.078125 -32.15625 L 7.4375 -32.15625 L 7.4375 -34.796875 C 7.4375 -38.273438 8.265625 -40.863281 9.921875 -42.5625 C 11.585938 -44.269531 14.21875 -45.125 17.8125 -45.125 L 22.4375 -45.125 L 22.4375 -41.046875 L 18.78125 -41.046875 C 16.457031 -41.046875 14.804688 -40.5625 13.828125 -39.59375 C 12.847656 -38.632812 12.359375 -37 12.359375 -34.6875 L 12.359375 -32.15625 Z M 22.4375 -32.15625 "/></g></g></g><g fill="#f9f8f9" fill-opacity="1"><g transform="translate(307.393404, 230.282137)"><g><path d="M 18.546875 -4.734375 L 22.078125 -4.734375 L 22.078125 0 L 17.875 0 C 14.394531 0 11.65625 -1.007812 9.65625 -3.03125 C 7.65625 -5.050781 6.65625 -7.820312 6.65625 -11.34375 L 6.65625 -27.78125 L 0.953125 -27.78125 L 0.953125 -28.6875 L 10.984375 -39.234375 L 11.765625 -39.234375 L 11.765625 -32.40625 L 21.90625 -32.40625 L 21.90625 -27.78125 L 11.765625 -27.78125 L 11.765625 -11.515625 C 11.765625 -9.316406 12.34375 -7.632812 13.5 -6.46875 C 14.65625 -5.3125 16.335938 -4.734375 18.546875 -4.734375 Z M 18.546875 -4.734375 "/></g></g></g></svg>