<svg xmlns="http://www.w3.org/2000/svg" xmlns:xlink="http://www.w3.org/1999/xlink" width="27" zoomAndPan="magnify" viewBox="0 0 20.25 19.499999" height="26" preserveAspectRatio="xMidYMid meet" version="1.0"><defs><clipPath id="afe2cb95b0"><path d="M 2.582031 2 L 17 2 L 17 16.160156 L 2.582031 16.160156 Z M 2.582031 2 " clip-rule="nonzero"/></clipPath></defs><g clip-path="url(#afe2cb95b0)"><path fill="#ffffff" d="M 15.558594 14.570312 L 15.5625 14.570312 Z M 5 2.847656 C 4.867188 2.847656 4.742188 2.910156 4.605469 3.03125 C 4.589844 3.042969 4.394531 3.230469 4.265625 3.351562 L 4.152344 3.457031 C 3.503906 4.066406 3.207031 5.160156 3.402344 6.25 C 3.464844 6.601562 3.566406 6.964844 3.703125 7.332031 C 4.390625 9.179688 5.695312 10.789062 6.671875 11.8125 C 7.644531 12.839844 9.179688 14.234375 10.988281 15.019531 C 11.347656 15.175781 11.703125 15.296875 12.050781 15.375 C 13.128906 15.628906 14.238281 15.394531 14.878906 14.773438 L 14.988281 14.671875 C 15.113281 14.554688 15.304688 14.371094 15.335938 14.34375 C 15.734375 13.933594 15.535156 13.589844 14.730469 12.777344 L 14.53125 12.570312 C 14.023438 12.042969 13.171875 11.160156 12.449219 11.246094 C 12.253906 11.269531 12.046875 11.410156 11.832031 11.5625 C 11.617188 11.710938 11.394531 11.867188 11.128906 11.953125 C 10.414062 12.179688 9.6875 12.027344 9.082031 11.53125 C 8.722656 11.234375 8.355469 10.886719 8.023438 10.527344 C 7.683594 10.179688 7.359375 9.796875 7.082031 9.417969 C 6.617188 8.792969 6.507812 8.058594 6.773438 7.355469 C 6.871094 7.09375 7.039062 6.878906 7.199219 6.675781 C 7.363281 6.464844 7.515625 6.269531 7.546875 6.074219 C 7.671875 5.355469 6.835938 4.460938 6.335938 3.925781 L 6.140625 3.710938 C 5.613281 3.132812 5.289062 2.847656 5 2.847656 Z M 12.921875 16.113281 C 12.558594 16.113281 12.214844 16.070312 11.90625 16 C 11.523438 15.910156 11.125 15.777344 10.734375 15.605469 C 8.824219 14.773438 7.21875 13.324219 6.207031 12.25 C 5.191406 11.1875 3.828125 9.503906 3.101562 7.554688 C 2.953125 7.152344 2.84375 6.75 2.773438 6.363281 C 2.589844 5.332031 2.738281 3.902344 3.71875 2.992188 L 3.824219 2.886719 C 3.960938 2.757812 4.171875 2.558594 4.183594 2.550781 C 5.160156 1.691406 6.035156 2.648438 6.613281 3.28125 L 6.804688 3.488281 C 7.382812 4.113281 8.355469 5.152344 8.175781 6.183594 C 8.117188 6.535156 7.894531 6.816406 7.703125 7.066406 C 7.5625 7.242188 7.433594 7.410156 7.371094 7.582031 C 7.179688 8.082031 7.257812 8.585938 7.59375 9.039062 C 7.855469 9.394531 8.164062 9.757812 8.484375 10.089844 C 8.804688 10.433594 9.152344 10.761719 9.488281 11.039062 C 9.925781 11.398438 10.425781 11.503906 10.933594 11.34375 C 11.109375 11.289062 11.28125 11.167969 11.464844 11.039062 C 11.726562 10.859375 12.019531 10.652344 12.375 10.609375 C 13.414062 10.488281 14.402344 11.511719 14.992188 12.125 L 15.1875 12.328125 C 15.789062 12.941406 16.699219 13.863281 15.789062 14.792969 C 15.773438 14.808594 15.5625 15.011719 15.425781 15.136719 L 15.324219 15.234375 C 14.652344 15.882812 13.75 16.113281 12.921875 16.113281 " fill-opacity="1" fill-rule="nonzero"/></g></svg>