<svg xmlns="http://www.w3.org/2000/svg" xmlns:xlink="http://www.w3.org/1999/xlink" width="283" zoomAndPan="magnify" viewBox="0 0 212.25 52.499999" height="70" preserveAspectRatio="xMidYMid meet" version="1.0"><defs><clipPath id="d268db806c"><path d="M 6.332031 9 L 200.234375 9 L 200.234375 39.429688 L 6.332031 39.429688 Z M 6.332031 9 " clip-rule="nonzero"/></clipPath></defs><g clip-path="url(#d268db806c)"><path fill="#ffc30f" d="M 38.054688 21.21875 L 30.910156 28.132812 C 30.761719 28.277344 30.695312 28.484375 30.730469 28.6875 L 32.417969 38.453125 C 32.503906 38.964844 31.964844 39.355469 31.5 39.113281 L 22.671875 34.503906 C 22.488281 34.40625 22.269531 34.40625 22.085938 34.503906 L 13.257812 39.113281 C 12.792969 39.355469 12.253906 38.964844 12.34375 38.453125 L 14.027344 28.6875 C 14.0625 28.484375 13.996094 28.277344 13.847656 28.132812 L 6.703125 21.21875 C 6.328125 20.855469 6.535156 20.222656 7.054688 20.148438 L 16.921875 18.726562 C 17.128906 18.695312 17.308594 18.566406 17.398438 18.382812 L 21.8125 9.5 C 22.042969 9.035156 22.714844 9.035156 22.945312 9.5 L 27.359375 18.382812 C 27.449219 18.566406 27.628906 18.695312 27.835938 18.726562 L 37.703125 20.148438 C 38.222656 20.222656 38.429688 20.855469 38.054688 21.21875 Z M 78.15625 20.148438 L 68.285156 18.726562 C 68.078125 18.695312 67.902344 18.566406 67.808594 18.382812 L 63.398438 9.5 C 63.164062 9.035156 62.496094 9.035156 62.265625 9.5 L 57.851562 18.382812 C 57.757812 18.566406 57.582031 18.695312 57.375 18.726562 L 47.503906 20.148438 C 46.988281 20.222656 46.78125 20.855469 47.15625 21.21875 L 54.296875 28.132812 C 54.445312 28.277344 54.515625 28.484375 54.480469 28.6875 L 52.792969 38.453125 C 52.703125 38.964844 53.246094 39.355469 53.707031 39.113281 L 62.535156 34.503906 C 62.71875 34.40625 62.941406 34.40625 63.125 34.503906 L 71.953125 39.113281 C 72.414062 39.355469 72.957031 38.964844 72.867188 38.453125 L 71.179688 28.6875 C 71.144531 28.484375 71.214844 28.277344 71.363281 28.132812 L 78.503906 21.21875 C 78.878906 20.855469 78.671875 20.222656 78.152344 20.148438 Z M 118.609375 20.148438 L 108.738281 18.726562 C 108.53125 18.695312 108.355469 18.566406 108.261719 18.382812 L 103.847656 9.5 C 103.617188 9.035156 102.949219 9.035156 102.714844 9.5 L 98.300781 18.382812 C 98.210938 18.566406 98.03125 18.695312 97.828125 18.726562 L 87.957031 20.148438 C 87.4375 20.222656 87.234375 20.855469 87.609375 21.21875 L 94.75 28.132812 C 94.898438 28.277344 94.964844 28.484375 94.929688 28.6875 L 93.246094 38.453125 C 93.15625 38.964844 93.699219 39.355469 94.160156 39.113281 L 102.988281 34.503906 C 103.171875 34.40625 103.390625 34.40625 103.574219 34.503906 L 112.402344 39.113281 C 112.867188 39.355469 113.40625 38.964844 113.320312 38.453125 L 111.632812 28.6875 C 111.597656 28.484375 111.664062 28.277344 111.8125 28.132812 L 118.957031 21.21875 C 119.328125 20.855469 119.125 20.222656 118.605469 20.148438 Z M 159.058594 20.148438 L 149.191406 18.726562 C 148.984375 18.695312 148.808594 18.566406 148.714844 18.382812 L 144.300781 9.5 C 144.070312 9.035156 143.402344 9.035156 143.167969 9.5 L 138.753906 18.382812 C 138.664062 18.566406 138.484375 18.695312 138.28125 18.726562 L 128.410156 20.148438 C 127.890625 20.222656 127.683594 20.855469 128.058594 21.21875 L 135.203125 28.132812 C 135.351562 28.277344 135.417969 28.484375 135.382812 28.6875 L 133.695312 38.453125 C 133.609375 38.964844 134.148438 39.355469 134.613281 39.113281 L 143.441406 34.503906 C 143.625 34.40625 143.84375 34.40625 144.027344 34.503906 L 152.855469 39.113281 C 153.320312 39.355469 153.859375 38.964844 153.769531 38.453125 L 152.085938 28.6875 C 152.050781 28.484375 152.117188 28.277344 152.265625 28.132812 L 159.40625 21.21875 C 159.78125 20.855469 159.574219 20.222656 159.058594 20.148438 Z M 199.863281 21.21875 C 200.238281 20.855469 200.03125 20.222656 199.511719 20.148438 L 189.644531 18.726562 C 189.4375 18.695312 189.257812 18.566406 189.167969 18.382812 L 184.753906 9.5 C 184.523438 9.035156 183.851562 9.035156 183.621094 9.5 L 179.207031 18.382812 C 179.113281 18.566406 178.9375 18.695312 178.730469 18.726562 L 168.863281 20.148438 C 168.34375 20.222656 168.136719 20.855469 168.511719 21.21875 L 175.652344 28.132812 C 175.800781 28.277344 175.871094 28.484375 175.835938 28.6875 L 174.148438 38.453125 C 174.0625 38.964844 174.601562 39.355469 175.066406 39.113281 L 183.894531 34.503906 C 184.078125 34.40625 184.296875 34.40625 184.480469 34.503906 L 193.308594 39.113281 C 193.769531 39.355469 194.3125 38.964844 194.222656 38.453125 L 192.539062 28.6875 C 192.503906 28.484375 192.570312 28.277344 192.71875 28.132812 L 199.859375 21.21875 Z M 199.863281 21.21875 " fill-opacity="1" fill-rule="nonzero"/></g></svg>