<svg xmlns="http://www.w3.org/2000/svg" xmlns:xlink="http://www.w3.org/1999/xlink" width="246" zoomAndPan="magnify" viewBox="0 0 184.5 184.499993" height="246" preserveAspectRatio="xMidYMid meet" version="1.0"><defs><clipPath id="6fb32a4bd7"><path d="M 0 0 L 183.992188 0 L 183.992188 183.992188 L 0 183.992188 Z M 0 0 " clip-rule="nonzero"/></clipPath><clipPath id="d6916f6bd2"><path d="M 3.550781 0 L 180.441406 0 C 181.382812 0 182.285156 0.375 182.953125 1.039062 C 183.617188 1.707031 183.992188 2.609375 183.992188 3.550781 L 183.992188 180.441406 C 183.992188 181.382812 183.617188 182.285156 182.953125 182.953125 C 182.285156 183.617188 181.382812 183.992188 180.441406 183.992188 L 3.550781 183.992188 C 2.609375 183.992188 1.707031 183.617188 1.039062 182.953125 C 0.375 182.285156 0 181.382812 0 180.441406 L 0 3.550781 C 0 2.609375 0.375 1.707031 1.039062 1.039062 C 1.707031 0.375 2.609375 0 3.550781 0 Z M 3.550781 0 " clip-rule="nonzero"/></clipPath><clipPath id="363e139ca1"><path d="M 33.082031 47.382812 L 151 47.382812 L 151 140.882812 L 33.082031 140.882812 Z M 33.082031 47.382812 " clip-rule="nonzero"/></clipPath></defs><g clip-path="url(#6fb32a4bd7)"><g clip-path="url(#d6916f6bd2)"><path fill="#ffffff" d="M 0 0 L 183.992188 0 L 183.992188 183.992188 L 0 183.992188 Z M 0 0 " fill-opacity="1" fill-rule="nonzero"/></g></g><g clip-path="url(#363e139ca1)"><path fill="#8d261f" d="M 150.273438 90.417969 L 148.898438 86.542969 C 148.148438 84.414062 145.769531 82.664062 143.644531 82.664062 L 138.765625 82.664062 C 135.140625 72.535156 130.761719 60.277344 129.386719 57.402344 C 127.386719 52.898438 121.007812 50.898438 117.503906 49.894531 C 117.503906 49.894531 111.625 47.644531 91.992188 47.644531 C 72.355469 47.644531 66.601562 49.894531 66.601562 49.894531 C 62.472656 51.273438 56.71875 53.273438 54.46875 57.527344 C 53.34375 59.652344 48.839844 72.160156 45.214844 82.664062 L 40.460938 82.664062 C 38.335938 82.664062 35.957031 84.414062 35.207031 86.542969 L 33.832031 90.417969 C 33.082031 92.546875 34.207031 94.296875 36.332031 94.296875 L 41.210938 94.296875 C 40.585938 96.046875 40.210938 97.046875 40.210938 97.046875 C 39.835938 97.671875 39.585938 100.550781 39.585938 101.425781 L 39.585938 136.820312 C 39.585938 139.070312 41.460938 140.949219 43.714844 140.949219 L 58.722656 140.949219 C 60.972656 140.949219 62.847656 139.070312 62.847656 136.820312 L 62.847656 129.316406 L 121.257812 129.316406 L 121.257812 136.820312 C 121.257812 139.070312 123.132812 140.949219 125.382812 140.949219 L 140.519531 140.949219 C 142.769531 140.949219 144.644531 139.070312 144.644531 136.820312 L 144.644531 101.425781 C 144.644531 100.675781 144.394531 97.671875 144.019531 97.046875 C 144.019531 97.046875 143.644531 96.046875 143.019531 94.296875 L 147.773438 94.296875 C 149.773438 94.296875 150.898438 92.546875 150.273438 90.417969 Z M 62.847656 112.183594 L 57.847656 108.804688 C 48.589844 108.054688 47.464844 111.304688 45.464844 107.804688 L 45.464844 103.550781 C 45.464844 99.425781 47.839844 99.300781 50.464844 99.300781 C 52.96875 99.300781 57.972656 101.425781 61.347656 102.925781 C 64.976562 104.550781 67.601562 103.175781 68.976562 108.554688 C 68.851562 111.054688 67.476562 112.183594 62.847656 112.183594 Z M 54.09375 84.289062 C 57.21875 71.535156 62.472656 62.652344 63.222656 60.527344 C 63.722656 59.027344 62.472656 56.273438 92.117188 56.273438 C 121.757812 56.273438 120.132812 60.277344 120.257812 60.402344 C 121.632812 63.277344 127.136719 72.660156 130.011719 84.289062 C 130.011719 84.289062 118.882812 85.792969 93.492188 85.792969 C 68.101562 85.792969 54.09375 84.289062 54.09375 84.289062 Z M 115.253906 108.554688 C 121.132812 101.300781 119.257812 104.550781 122.882812 102.925781 C 126.136719 101.425781 131.261719 99.300781 133.765625 99.300781 C 136.390625 99.300781 138.765625 99.425781 138.765625 103.550781 L 138.765625 107.804688 C 136.890625 111.179688 135.265625 108.179688 125.886719 109.054688 L 121.257812 112.058594 C 116.628906 112.183594 113.628906 110.429688 115.253906 108.554688 Z M 115.253906 108.554688 " fill-opacity="1" fill-rule="nonzero"/></g></svg>