<svg xmlns="http://www.w3.org/2000/svg" xmlns:xlink="http://www.w3.org/1999/xlink" width="246" zoomAndPan="magnify" viewBox="0 0 184.5 184.499993" height="246" preserveAspectRatio="xMidYMid meet" version="1.0"><defs><clipPath id="675143d92e"><path d="M 0 0 L 183.992188 0 L 183.992188 183.992188 L 0 183.992188 Z M 0 0 " clip-rule="nonzero"/></clipPath><clipPath id="5df8b5d272"><path d="M 3.550781 0 L 180.441406 0 C 181.382812 0 182.285156 0.375 182.953125 1.039062 C 183.617188 1.707031 183.992188 2.609375 183.992188 3.550781 L 183.992188 180.441406 C 183.992188 181.382812 183.617188 182.285156 182.953125 182.953125 C 182.285156 183.617188 181.382812 183.992188 180.441406 183.992188 L 3.550781 183.992188 C 2.609375 183.992188 1.707031 183.617188 1.039062 182.953125 C 0.375 182.285156 0 181.382812 0 180.441406 L 0 3.550781 C 0 2.609375 0.375 1.707031 1.039062 1.039062 C 1.707031 0.375 2.609375 0 3.550781 0 Z M 3.550781 0 " clip-rule="nonzero"/></clipPath><clipPath id="3f700243f5"><path d="M 53.425781 35.828125 L 130.46875 35.828125 L 130.46875 147.988281 L 53.425781 147.988281 Z M 53.425781 35.828125 " clip-rule="nonzero"/></clipPath></defs><path fill="#ffffff" d="M 0 0 L 184 0 L 184 184 L 0 184 Z M 0 0 " fill-opacity="1" fill-rule="nonzero"/><g clip-path="url(#675143d92e)"><g clip-path="url(#5df8b5d272)"><path fill="#ffffff" d="M 0 0 L 183.992188 0 L 183.992188 183.992188 L 0 183.992188 Z M 0 0 " fill-opacity="1" fill-rule="nonzero"/></g></g><g clip-path="url(#3f700243f5)"><path fill="#8d261f" d="M 126.878906 143.363281 C 126.878906 143.972656 126.382812 144.46875 125.773438 144.46875 L 58.222656 144.46875 C 57.613281 144.46875 57.117188 143.972656 57.117188 143.363281 L 57.117188 57.730469 C 57.117188 57.117188 57.613281 56.621094 58.222656 56.621094 L 67.453125 56.621094 L 67.453125 60.929688 L 62.714844 60.929688 C 61.695312 60.929688 60.871094 61.753906 60.871094 62.773438 L 60.871094 136.105469 C 60.871094 137.125 61.695312 137.949219 62.714844 137.949219 L 121.28125 137.949219 C 122.300781 137.949219 123.125 137.125 123.125 136.105469 L 123.125 62.773438 C 123.125 61.753906 122.300781 60.929688 121.28125 60.929688 L 116.542969 60.929688 L 116.542969 56.621094 L 125.773438 56.621094 C 126.382812 56.621094 126.878906 57.117188 126.878906 57.730469 Z M 71.140625 52.191406 C 71.140625 51.582031 71.640625 51.085938 72.25 51.085938 L 94.859375 51.085938 C 95.878906 51.085938 96.703125 50.257812 96.703125 49.242188 C 96.703125 48.21875 95.878906 47.394531 94.859375 47.394531 L 82.457031 47.394531 C 83.320312 42.914062 87.269531 39.519531 91.996094 39.519531 C 97.355469 39.519531 101.71875 43.878906 101.71875 49.242188 C 101.71875 50.257812 102.542969 51.085938 103.5625 51.085938 L 111.746094 51.085938 C 112.355469 51.085938 112.851562 51.582031 112.851562 52.191406 L 112.851562 63.820312 L 71.140625 63.820312 Z M 69.296875 67.511719 L 114.699219 67.511719 C 115.71875 67.511719 116.542969 66.683594 116.542969 65.664062 L 116.542969 64.621094 L 119.433594 64.621094 L 119.433594 134.257812 L 64.558594 134.257812 L 64.558594 64.621094 L 67.453125 64.621094 L 67.453125 65.664062 C 67.453125 66.683594 68.277344 67.511719 69.296875 67.511719 Z M 125.773438 52.929688 L 116.542969 52.929688 L 116.542969 52.191406 C 116.542969 49.546875 114.390625 47.394531 111.746094 47.394531 L 105.28125 47.394531 C 104.378906 40.867188 98.765625 35.828125 91.996094 35.828125 C 85.230469 35.828125 79.613281 40.867188 78.714844 47.394531 L 72.25 47.394531 C 69.605469 47.394531 67.453125 49.546875 67.453125 52.191406 L 67.453125 52.929688 L 58.222656 52.929688 C 55.578125 52.929688 53.425781 55.085938 53.425781 57.730469 L 53.425781 143.363281 C 53.425781 146.007812 55.578125 148.160156 58.222656 148.160156 L 125.773438 148.160156 C 128.417969 148.160156 130.570312 146.007812 130.570312 143.363281 L 130.570312 57.730469 C 130.570312 55.085938 128.417969 52.929688 125.773438 52.929688 " fill-opacity="1" fill-rule="nonzero"/></g><path fill="#8d261f" d="M 71.140625 98.769531 C 71.140625 96.890625 72.433594 95.253906 74.277344 94.785156 C 74.5625 94.710938 74.890625 94.675781 75.28125 94.675781 L 91.410156 94.675781 L 90.777344 100.269531 L 85.644531 100.269531 C 85.640625 100.253906 85.632812 100.242188 85.628906 100.226562 C 85.585938 100.085938 85.539062 99.941406 85.484375 99.804688 C 85.472656 99.773438 85.460938 99.742188 85.449219 99.710938 C 85.394531 99.574219 85.339844 99.441406 85.277344 99.3125 C 85.273438 99.300781 85.265625 99.289062 85.261719 99.277344 C 85.195312 99.140625 85.125 99.003906 85.046875 98.875 C 85.03125 98.84375 85.015625 98.8125 84.996094 98.785156 C 84.921875 98.65625 84.839844 98.53125 84.757812 98.410156 C 84.738281 98.382812 84.722656 98.359375 84.707031 98.335938 C 84.625 98.222656 84.542969 98.109375 84.453125 98 C 84.441406 97.988281 84.429688 97.972656 84.417969 97.957031 C 84.324219 97.839844 84.222656 97.730469 84.121094 97.621094 C 84.097656 97.597656 84.074219 97.570312 84.050781 97.546875 C 83.945312 97.441406 83.839844 97.335938 83.730469 97.234375 C 83.710938 97.21875 83.691406 97.203125 83.671875 97.1875 C 83.566406 97.09375 83.460938 97.007812 83.351562 96.921875 C 83.332031 96.90625 83.3125 96.890625 83.292969 96.878906 C 83.175781 96.789062 83.050781 96.703125 82.925781 96.621094 C 82.898438 96.601562 82.871094 96.582031 82.839844 96.566406 C 82.714844 96.484375 82.582031 96.40625 82.449219 96.335938 C 82.433594 96.328125 82.414062 96.316406 82.398438 96.308594 C 82.273438 96.242188 82.144531 96.179688 82.011719 96.121094 C 81.988281 96.109375 81.964844 96.097656 81.941406 96.089844 C 81.800781 96.027344 81.660156 95.972656 81.515625 95.921875 C 81.484375 95.910156 81.453125 95.902344 81.421875 95.890625 C 81.273438 95.839844 81.125 95.796875 80.972656 95.757812 C 80.960938 95.753906 80.949219 95.75 80.9375 95.75 C 80.792969 95.710938 80.644531 95.683594 80.492188 95.65625 C 80.464844 95.648438 80.433594 95.644531 80.40625 95.640625 C 80.25 95.613281 80.097656 95.59375 79.9375 95.582031 C 79.90625 95.578125 79.875 95.574219 79.839844 95.574219 C 79.675781 95.5625 79.511719 95.554688 79.347656 95.554688 C 79.179688 95.554688 79.011719 95.5625 78.847656 95.574219 C 78.816406 95.574219 78.785156 95.578125 78.753906 95.582031 C 78.597656 95.59375 78.441406 95.613281 78.285156 95.640625 C 78.253906 95.644531 78.226562 95.648438 78.199219 95.65625 C 78.046875 95.683594 77.898438 95.710938 77.753906 95.75 C 77.742188 95.75 77.730469 95.753906 77.71875 95.757812 C 77.566406 95.796875 77.417969 95.839844 77.269531 95.890625 C 77.238281 95.902344 77.207031 95.910156 77.175781 95.921875 C 77.03125 95.972656 76.890625 96.027344 76.75 96.089844 C 76.726562 96.097656 76.703125 96.109375 76.679688 96.121094 C 76.546875 96.179688 76.417969 96.242188 76.292969 96.308594 C 76.273438 96.316406 76.257812 96.328125 76.242188 96.335938 C 76.109375 96.40625 75.976562 96.484375 75.851562 96.566406 C 75.820312 96.582031 75.792969 96.601562 75.765625 96.621094 C 75.640625 96.703125 75.515625 96.789062 75.398438 96.878906 C 75.378906 96.890625 75.359375 96.90625 75.339844 96.921875 C 75.230469 97.007812 75.125 97.09375 75.019531 97.1875 C 75 97.203125 74.980469 97.21875 74.960938 97.234375 C 74.851562 97.335938 74.746094 97.441406 74.640625 97.546875 C 74.617188 97.570312 74.59375 97.597656 74.570312 97.621094 C 74.46875 97.730469 74.367188 97.839844 74.273438 97.957031 C 74.261719 97.972656 74.25 97.988281 74.238281 98 C 74.148438 98.109375 74.066406 98.222656 73.984375 98.335938 C 73.96875 98.359375 73.949219 98.382812 73.933594 98.410156 C 73.851562 98.53125 73.769531 98.65625 73.695312 98.785156 C 73.675781 98.8125 73.660156 98.84375 73.644531 98.875 C 73.570312 99.003906 73.496094 99.140625 73.429688 99.277344 C 73.425781 99.289062 73.417969 99.300781 73.414062 99.3125 C 73.351562 99.441406 73.296875 99.574219 73.242188 99.707031 C 73.230469 99.742188 73.214844 99.773438 73.203125 99.804688 C 73.152344 99.945312 73.105469 100.085938 73.0625 100.226562 C 73.058594 100.242188 73.050781 100.253906 73.046875 100.269531 L 71.140625 100.269531 Z M 107.519531 102.113281 C 107.519531 103.699219 106.234375 104.984375 104.648438 104.984375 C 103.066406 104.984375 101.777344 103.699219 101.777344 102.113281 C 101.777344 100.53125 103.066406 99.242188 104.648438 99.242188 C 106.234375 99.242188 107.519531 100.53125 107.519531 102.113281 Z M 79.347656 104.984375 C 77.761719 104.984375 76.476562 103.699219 76.476562 102.113281 C 76.476562 100.53125 77.761719 99.242188 79.347656 99.242188 C 80.929688 99.242188 82.214844 100.53125 82.214844 102.113281 C 82.214844 103.699219 80.929688 104.984375 79.347656 104.984375 Z M 67.453125 100.695312 C 67.453125 102.496094 68.917969 103.960938 70.71875 103.960938 L 73.050781 103.960938 C 73.847656 106.683594 76.367188 108.675781 79.347656 108.675781 C 82.324219 108.675781 84.839844 106.683594 85.640625 103.960938 L 98.355469 103.960938 C 99.152344 106.683594 101.671875 108.675781 104.648438 108.675781 C 107.625 108.675781 110.148438 106.683594 110.945312 103.960938 L 113.277344 103.960938 C 115.078125 103.960938 116.542969 102.496094 116.542969 100.695312 L 116.542969 94.207031 C 116.542969 92.9375 116.09375 91.703125 115.273438 90.730469 L 112.074219 86.933594 C 111.015625 85.679688 109.625 84.777344 108.042969 84.324219 C 107.0625 84.039062 106.042969 84.609375 105.761719 85.589844 C 105.480469 86.566406 106.046875 87.589844 107.027344 87.871094 C 107.898438 88.121094 108.667969 88.617188 109.25 89.3125 L 112.449219 93.109375 C 112.710938 93.414062 112.851562 93.804688 112.851562 94.207031 L 112.851562 100.269531 L 110.949219 100.269531 C 110.941406 100.253906 110.9375 100.242188 110.933594 100.226562 C 110.890625 100.085938 110.84375 99.945312 110.792969 99.804688 C 110.777344 99.773438 110.765625 99.742188 110.753906 99.707031 C 110.699219 99.574219 110.644531 99.441406 110.582031 99.3125 C 110.578125 99.300781 110.570312 99.289062 110.566406 99.277344 C 110.5 99.140625 110.425781 99.003906 110.351562 98.875 C 110.335938 98.84375 110.316406 98.8125 110.300781 98.785156 C 110.222656 98.65625 110.144531 98.53125 110.0625 98.410156 C 110.046875 98.382812 110.027344 98.359375 110.011719 98.335938 C 109.929688 98.222656 109.84375 98.109375 109.757812 98 C 109.746094 97.988281 109.734375 97.972656 109.722656 97.957031 C 109.628906 97.839844 109.527344 97.730469 109.425781 97.621094 C 109.402344 97.597656 109.378906 97.570312 109.355469 97.546875 C 109.25 97.441406 109.144531 97.335938 109.03125 97.234375 C 109.015625 97.21875 108.996094 97.203125 108.976562 97.1875 C 108.871094 97.09375 108.765625 97.007812 108.652344 96.921875 C 108.636719 96.90625 108.617188 96.890625 108.597656 96.878906 C 108.480469 96.789062 108.355469 96.703125 108.230469 96.621094 C 108.203125 96.601562 108.175781 96.582031 108.144531 96.566406 C 108.019531 96.484375 107.886719 96.40625 107.753906 96.335938 C 107.738281 96.328125 107.71875 96.316406 107.703125 96.308594 C 107.574219 96.242188 107.449219 96.179688 107.316406 96.121094 C 107.292969 96.109375 107.269531 96.097656 107.242188 96.089844 C 107.105469 96.027344 106.960938 95.972656 106.820312 95.921875 C 106.789062 95.910156 106.757812 95.902344 106.726562 95.890625 C 106.578125 95.839844 106.429688 95.796875 106.277344 95.757812 C 106.265625 95.753906 106.253906 95.75 106.242188 95.75 C 106.097656 95.710938 105.949219 95.683594 105.796875 95.65625 C 105.769531 95.648438 105.738281 95.644531 105.710938 95.640625 C 105.554688 95.613281 105.398438 95.59375 105.242188 95.582031 C 105.210938 95.578125 105.179688 95.574219 105.144531 95.574219 C 104.980469 95.5625 104.816406 95.554688 104.648438 95.554688 C 104.480469 95.554688 104.316406 95.5625 104.152344 95.574219 C 104.121094 95.574219 104.089844 95.578125 104.058594 95.582031 C 103.898438 95.59375 103.742188 95.613281 103.589844 95.640625 C 103.5625 95.644531 103.53125 95.648438 103.503906 95.65625 C 103.351562 95.683594 103.203125 95.710938 103.054688 95.75 C 103.046875 95.75 103.035156 95.753906 103.023438 95.757812 C 102.871094 95.796875 102.722656 95.839844 102.574219 95.890625 C 102.542969 95.902344 102.511719 95.910156 102.480469 95.921875 C 102.335938 95.972656 102.195312 96.027344 102.054688 96.089844 C 102.03125 96.097656 102.007812 96.109375 101.980469 96.121094 C 101.851562 96.179688 101.722656 96.242188 101.597656 96.308594 C 101.582031 96.316406 101.5625 96.328125 101.546875 96.335938 C 101.410156 96.40625 101.28125 96.484375 101.152344 96.566406 C 101.125 96.582031 101.097656 96.601562 101.070312 96.621094 C 100.945312 96.703125 100.820312 96.789062 100.703125 96.878906 C 100.683594 96.890625 100.664062 96.90625 100.644531 96.921875 C 100.535156 97.007812 100.425781 97.09375 100.324219 97.1875 C 100.304688 97.203125 100.285156 97.21875 100.265625 97.234375 C 100.15625 97.335938 100.050781 97.441406 99.945312 97.546875 C 99.921875 97.570312 99.898438 97.597656 99.875 97.621094 C 99.773438 97.730469 99.671875 97.839844 99.578125 97.957031 C 99.566406 97.972656 99.554688 97.988281 99.542969 98 C 99.453125 98.109375 99.371094 98.222656 99.289062 98.335938 C 99.273438 98.359375 99.253906 98.382812 99.238281 98.410156 C 99.152344 98.53125 99.074219 98.65625 99 98.785156 C 98.980469 98.8125 98.964844 98.84375 98.949219 98.875 C 98.871094 99.003906 98.800781 99.140625 98.734375 99.277344 C 98.726562 99.289062 98.722656 99.300781 98.71875 99.3125 C 98.65625 99.441406 98.597656 99.574219 98.546875 99.710938 C 98.535156 99.742188 98.519531 99.773438 98.507812 99.804688 C 98.457031 99.941406 98.40625 100.085938 98.367188 100.226562 C 98.363281 100.242188 98.355469 100.253906 98.351562 100.269531 L 94.492188 100.269531 L 95.125 94.675781 L 100.855469 94.675781 C 101.875 94.675781 102.703125 93.851562 102.703125 92.832031 C 102.703125 91.8125 101.875 90.988281 100.855469 90.988281 L 84.851562 90.988281 L 86.976562 88.957031 C 87.828125 88.144531 88.941406 87.695312 90.117188 87.695312 C 91.136719 87.695312 91.964844 86.867188 91.964844 85.847656 C 91.964844 84.828125 91.136719 84.003906 90.117188 84.003906 C 87.988281 84.003906 85.964844 84.816406 84.425781 86.289062 L 79.515625 90.988281 L 75.28125 90.988281 C 74.582031 90.988281 73.957031 91.058594 73.371094 91.203125 C 69.886719 92.089844 67.453125 95.199219 67.453125 98.769531 L 67.453125 100.695312 " fill-opacity="1" fill-rule="nonzero"/><path fill="#8d261f" d="M 98.96875 87.683594 C 103.316406 87.683594 106.851562 84.148438 106.851562 79.800781 C 106.851562 78.78125 106.027344 77.957031 105.007812 77.957031 C 103.988281 77.957031 103.160156 78.78125 103.160156 79.800781 C 103.160156 82.113281 101.28125 83.992188 98.96875 83.992188 C 96.660156 83.992188 94.777344 82.113281 94.777344 79.800781 C 94.777344 78.78125 93.953125 77.957031 92.933594 77.957031 C 91.914062 77.957031 91.089844 78.78125 91.089844 79.800781 C 91.089844 84.148438 94.625 87.683594 98.96875 87.683594 " fill-opacity="1" fill-rule="nonzero"/><path fill="#8d261f" d="M 97.570312 81.066406 C 97.921875 81.472656 98.433594 81.707031 98.96875 81.707031 C 98.984375 81.707031 99 81.707031 99.011719 81.707031 C 99.5625 81.695312 100.082031 81.433594 100.421875 81 L 105.75 74.210938 C 106.378906 73.410156 106.238281 72.246094 105.4375 71.621094 C 104.632812 70.988281 103.476562 71.132812 102.84375 71.933594 L 98.90625 76.953125 L 96.863281 74.578125 C 96.199219 73.800781 95.03125 73.71875 94.261719 74.378906 C 93.488281 75.042969 93.398438 76.207031 94.0625 76.980469 L 97.570312 81.066406 " fill-opacity="1" fill-rule="nonzero"/><path fill="#8d261f" d="M 107.992188 116.417969 C 109.011719 116.417969 109.839844 115.589844 109.839844 114.570312 C 109.839844 113.550781 109.011719 112.726562 107.992188 112.726562 L 76.003906 112.726562 C 74.984375 112.726562 74.15625 113.550781 74.15625 114.570312 C 74.15625 115.589844 74.984375 116.417969 76.003906 116.417969 L 107.992188 116.417969 " fill-opacity="1" fill-rule="nonzero"/><path fill="#8d261f" d="M 108.925781 122.9375 L 76.9375 122.9375 C 75.917969 122.9375 75.09375 123.765625 75.09375 124.785156 C 75.09375 125.804688 75.917969 126.628906 76.9375 126.628906 L 108.925781 126.628906 C 109.949219 126.628906 110.773438 125.804688 110.773438 124.785156 C 110.773438 123.765625 109.949219 122.9375 108.925781 122.9375 " fill-opacity="1" fill-rule="nonzero"/></svg>