<svg xmlns="http://www.w3.org/2000/svg" xmlns:xlink="http://www.w3.org/1999/xlink" width="246" zoomAndPan="magnify" viewBox="0 0 184.5 184.499993" height="246" preserveAspectRatio="xMidYMid meet" version="1.0"><defs><clipPath id="03a4aab3a3"><path d="M 0 0 L 183.992188 0 L 183.992188 183.992188 L 0 183.992188 Z M 0 0 " clip-rule="nonzero"/></clipPath><clipPath id="f5189f482c"><path d="M 3.550781 0 L 180.441406 0 C 181.382812 0 182.285156 0.375 182.953125 1.039062 C 183.617188 1.707031 183.992188 2.609375 183.992188 3.550781 L 183.992188 180.441406 C 183.992188 181.382812 183.617188 182.285156 182.953125 182.953125 C 182.285156 183.617188 181.382812 183.992188 180.441406 183.992188 L 3.550781 183.992188 C 2.609375 183.992188 1.707031 183.617188 1.039062 182.953125 C 0.375 182.285156 0 181.382812 0 180.441406 L 0 3.550781 C 0 2.609375 0.375 1.707031 1.039062 1.039062 C 1.707031 0.375 2.609375 0 3.550781 0 Z M 3.550781 0 " clip-rule="nonzero"/></clipPath><clipPath id="8db536f1cf"><path d="M 34.210938 33.832031 L 150 33.832031 L 150 150.515625 L 34.210938 150.515625 Z M 34.210938 33.832031 " clip-rule="nonzero"/></clipPath></defs><g clip-path="url(#03a4aab3a3)"><g clip-path="url(#f5189f482c)"><path fill="#8d261f" d="M 0 0 L 183.992188 0 L 183.992188 183.992188 L 0 183.992188 Z M 0 0 " fill-opacity="1" fill-rule="nonzero"/></g></g><path fill="#ffffff" d="M 52.636719 101.167969 L 61.824219 101.167969 C 63.101562 101.167969 64.132812 100.136719 64.132812 98.863281 L 64.132812 89.671875 C 64.132812 88.398438 63.101562 87.363281 61.824219 87.363281 L 52.636719 87.363281 C 51.363281 87.363281 50.328125 88.398438 50.328125 89.671875 L 50.328125 98.863281 C 50.328125 100.136719 51.363281 101.167969 52.636719 101.167969 Z M 52.636719 101.167969 " fill-opacity="1" fill-rule="nonzero"/><path fill="#ffffff" d="M 52.636719 120.167969 L 61.824219 120.167969 C 63.101562 120.167969 64.132812 119.136719 64.132812 117.859375 L 64.132812 108.671875 C 64.132812 107.398438 63.101562 106.363281 61.824219 106.363281 L 52.636719 106.363281 C 51.363281 106.363281 50.328125 107.398438 50.328125 108.671875 L 50.328125 117.859375 C 50.328125 119.136719 51.363281 120.167969 52.636719 120.167969 Z M 52.636719 120.167969 " fill-opacity="1" fill-rule="nonzero"/><path fill="#ffffff" d="M 52.636719 139.167969 L 61.824219 139.167969 C 63.101562 139.167969 64.132812 138.132812 64.132812 136.859375 L 64.132812 127.671875 C 64.132812 126.394531 63.101562 125.363281 61.824219 125.363281 L 52.636719 125.363281 C 51.363281 125.363281 50.328125 126.394531 50.328125 127.671875 L 50.328125 136.859375 C 50.328125 138.132812 51.363281 139.167969 52.636719 139.167969 Z M 52.636719 139.167969 " fill-opacity="1" fill-rule="nonzero"/><path fill="#ffffff" d="M 75.8125 101.167969 L 85 101.167969 C 86.273438 101.167969 87.308594 100.136719 87.308594 98.863281 L 87.308594 89.671875 C 87.308594 88.398438 86.273438 87.363281 85 87.363281 L 75.8125 87.363281 C 74.535156 87.363281 73.503906 88.398438 73.503906 89.671875 L 73.503906 98.863281 C 73.503906 100.136719 74.535156 101.167969 75.8125 101.167969 Z M 75.8125 101.167969 " fill-opacity="1" fill-rule="nonzero"/><path fill="#ffffff" d="M 75.8125 120.167969 L 85 120.167969 C 86.273438 120.167969 87.308594 119.136719 87.308594 117.859375 L 87.308594 108.671875 C 87.308594 107.398438 86.273438 106.363281 85 106.363281 L 75.8125 106.363281 C 74.535156 106.363281 73.503906 107.398438 73.503906 108.671875 L 73.503906 117.859375 C 73.503906 119.136719 74.535156 120.167969 75.8125 120.167969 Z M 75.8125 120.167969 " fill-opacity="1" fill-rule="nonzero"/><path fill="#ffffff" d="M 75.8125 139.167969 L 85 139.167969 C 86.273438 139.167969 87.308594 138.132812 87.308594 136.859375 L 87.308594 127.671875 C 87.308594 126.394531 86.273438 125.363281 85 125.363281 L 75.8125 125.363281 C 74.535156 125.363281 73.503906 126.394531 73.503906 127.671875 L 73.503906 136.859375 C 73.503906 138.132812 74.535156 139.167969 75.8125 139.167969 Z M 75.8125 139.167969 " fill-opacity="1" fill-rule="nonzero"/><path fill="#ffffff" d="M 98.984375 101.167969 L 108.175781 101.167969 C 109.449219 101.167969 110.484375 100.136719 110.484375 98.863281 L 110.484375 89.671875 C 110.484375 88.398438 109.449219 87.363281 108.175781 87.363281 L 98.984375 87.363281 C 97.710938 87.363281 96.679688 88.398438 96.679688 89.671875 L 96.679688 98.863281 C 96.679688 100.136719 97.710938 101.167969 98.984375 101.167969 Z M 98.984375 101.167969 " fill-opacity="1" fill-rule="nonzero"/><path fill="#ffffff" d="M 108.175781 125.363281 L 98.984375 125.363281 C 97.710938 125.363281 96.679688 126.394531 96.679688 127.671875 L 96.679688 136.859375 C 96.679688 138.132812 97.710938 139.167969 98.984375 139.167969 L 108.175781 139.167969 C 109.449219 139.167969 110.484375 138.132812 110.484375 136.859375 L 110.484375 127.671875 C 110.484375 126.394531 109.449219 125.363281 108.175781 125.363281 Z M 108.175781 125.363281 " fill-opacity="1" fill-rule="nonzero"/><path fill="#ffffff" d="M 122.160156 101.167969 L 131.347656 101.167969 C 132.625 101.167969 133.65625 100.136719 133.65625 98.863281 L 133.65625 89.671875 C 133.65625 88.398438 132.625 87.363281 131.347656 87.363281 L 122.160156 87.363281 C 120.886719 87.363281 119.851562 88.398438 119.851562 89.671875 L 119.851562 98.863281 C 119.851562 100.136719 120.886719 101.167969 122.160156 101.167969 Z M 122.160156 101.167969 " fill-opacity="1" fill-rule="nonzero"/><path fill="#ffffff" d="M 122.160156 120.167969 L 131.347656 120.167969 C 132.625 120.167969 133.65625 119.136719 133.65625 117.859375 L 133.65625 108.671875 C 133.65625 107.398438 132.625 106.363281 131.347656 106.363281 L 122.160156 106.363281 C 120.886719 106.363281 119.851562 107.398438 119.851562 108.671875 L 119.851562 117.859375 C 119.851562 119.136719 120.886719 120.167969 122.160156 120.167969 Z M 122.160156 120.167969 " fill-opacity="1" fill-rule="nonzero"/><g clip-path="url(#8db536f1cf)"><path fill="#ffffff" d="M 122.667969 33.839844 C 120.503906 33.839844 118.75 35.597656 118.75 37.761719 L 118.75 45.636719 L 65.441406 45.636719 L 65.441406 37.761719 C 65.441406 35.597656 63.683594 33.839844 61.519531 33.839844 C 59.355469 33.839844 57.601562 35.597656 57.601562 37.761719 L 57.601562 45.636719 L 45.25 45.636719 C 39.164062 45.636719 34.210938 50.585938 34.210938 56.671875 L 34.210938 139.109375 C 34.210938 145.195312 39.164062 150.148438 45.25 150.148438 L 138.738281 150.148438 C 144.824219 150.148438 149.773438 145.195312 149.773438 139.109375 L 149.773438 56.671875 C 149.773438 50.585938 144.824219 45.636719 138.738281 45.636719 L 126.585938 45.636719 L 126.585938 37.761719 C 126.585938 35.597656 124.832031 33.839844 122.667969 33.839844 Z M 57.601562 51.257812 L 57.601562 56.125 C 57.601562 58.289062 59.355469 60.042969 61.519531 60.042969 C 63.683594 60.042969 65.441406 58.289062 65.441406 56.125 L 65.441406 51.257812 C 66.859375 52.402344 67.769531 54.15625 67.769531 56.125 C 67.769531 59.574219 64.972656 62.375 61.519531 62.375 C 58.070312 62.375 55.273438 59.574219 55.273438 56.125 C 55.273438 54.15625 56.179688 52.402344 57.601562 51.257812 Z M 144.335938 139.109375 C 144.335938 142.199219 141.824219 144.710938 138.738281 144.710938 L 45.25 144.710938 C 42.160156 144.710938 39.648438 142.199219 39.648438 139.109375 L 39.648438 81.824219 L 144.335938 81.824219 Z M 128.914062 56.125 C 128.914062 59.574219 126.117188 62.375 122.667969 62.375 C 119.214844 62.375 116.417969 59.574219 116.417969 56.125 C 116.417969 54.15625 117.328125 52.402344 118.746094 51.257812 L 118.746094 56.125 C 118.746094 58.289062 120.503906 60.042969 122.667969 60.042969 C 124.832031 60.042969 126.585938 58.289062 126.585938 56.125 L 126.585938 51.257812 C 128.007812 52.402344 128.914062 54.15625 128.914062 56.125 Z M 128.914062 56.125 " fill-opacity="1" fill-rule="nonzero"/></g><path fill="#ffffff" d="M 102.851562 121.386719 L 113.804688 110.4375 C 114.867188 109.375 114.867188 107.652344 113.804688 106.589844 C 112.742188 105.527344 111.019531 105.527344 109.960938 106.589844 L 102.851562 113.695312 L 100 110.84375 C 98.9375 109.78125 97.214844 109.78125 96.15625 110.84375 C 95.09375 111.90625 95.09375 113.625 96.15625 114.6875 Z M 102.851562 121.386719 " fill-opacity="1" fill-rule="nonzero"/></svg>