<svg xmlns="http://www.w3.org/2000/svg" xmlns:xlink="http://www.w3.org/1999/xlink" width="215" zoomAndPan="magnify" viewBox="0 0 161.25 162.75" height="217" preserveAspectRatio="xMidYMid meet" version="1.0"><defs><clipPath id="5eca2d0011"><path d="M 5.652344 7.875 L 154.957031 7.875 L 154.957031 157 L 5.652344 157 Z M 5.652344 7.875 " clip-rule="nonzero"/></clipPath></defs><g clip-path="url(#5eca2d0011)"><path fill="#008000" d="M 79.941406 18.4375 C 44.746094 18.4375 16.210938 46.96875 16.210938 82.164062 C 16.210938 117.359375 44.746094 145.890625 79.941406 145.890625 C 115.136719 145.890625 143.667969 117.359375 143.667969 82.164062 C 143.667969 46.96875 115.136719 18.4375 79.941406 18.4375 Z M 5.289062 82.164062 C 5.289062 40.933594 38.710938 7.511719 79.941406 7.511719 C 121.167969 7.511719 154.59375 40.933594 154.59375 82.164062 C 154.59375 123.394531 121.167969 156.816406 79.941406 156.816406 C 38.710938 156.816406 5.289062 123.394531 5.289062 82.164062 Z M 5.289062 82.164062 " fill-opacity="1" fill-rule="evenodd"/></g><path fill="#008000" d="M 119.507812 48.570312 C 121.972656 50.308594 122.558594 53.714844 120.820312 56.179688 L 77.121094 118.089844 C 76.191406 119.40625 74.726562 120.242188 73.121094 120.382812 C 71.519531 120.519531 69.933594 119.941406 68.792969 118.800781 L 39.660156 89.667969 C 37.527344 87.535156 37.527344 84.078125 39.660156 81.941406 C 41.792969 79.808594 45.253906 79.808594 47.386719 81.941406 L 71.933594 106.492188 L 111.894531 49.882812 C 113.632812 47.417969 117.042969 46.828125 119.507812 48.570312 Z M 119.507812 48.570312 " fill-opacity="1" fill-rule="evenodd"/></svg>